ISO-10303-21;
HEADER;
/* Generated by software containing ST-Developer
 * from STEP Tools, Inc. (www.steptools.com) 
 */

FILE_DESCRIPTION(
/* description */ (''),
/* implementation_level */ '2;1');

FILE_NAME(
/* name */ 'Base -.step',
/* time_stamp */ '2026-06-20T11:08:29+02:00',
/* author */ (''),
/* organization */ (''),
/* preprocessor_version */ 'ST-DEVELOPER v20.1',
/* originating_system */ 'Autodesk Translation Framework v15.8.0.0',
/* authorisation */ '');

FILE_SCHEMA (('AUTOMOTIVE_DESIGN { 1 0 10303 214 3 1 1 }'));
ENDSEC;

DATA;
#10=MECHANICAL_DESIGN_GEOMETRIC_PRESENTATION_REPRESENTATION('',(#13),#513);
#11=SHAPE_REPRESENTATION_RELATIONSHIP('SRR','None',#520,#12);
#12=ADVANCED_BREP_SHAPE_REPRESENTATION('',(#14),#512);
#13=STYLED_ITEM('',(#529),#14);
#14=MANIFOLD_SOLID_BREP('Base -',#317);
#15=FACE_OUTER_BOUND('',#31,.T.);
#16=FACE_OUTER_BOUND('',#32,.T.);
#17=FACE_OUTER_BOUND('',#33,.T.);
#18=FACE_OUTER_BOUND('',#34,.T.);
#19=FACE_OUTER_BOUND('',#35,.T.);
#20=FACE_OUTER_BOUND('',#36,.T.);
#21=FACE_OUTER_BOUND('',#37,.T.);
#22=FACE_OUTER_BOUND('',#38,.T.);
#23=FACE_OUTER_BOUND('',#39,.T.);
#24=FACE_OUTER_BOUND('',#40,.T.);
#25=FACE_OUTER_BOUND('',#41,.T.);
#26=FACE_OUTER_BOUND('',#42,.T.);
#27=FACE_OUTER_BOUND('',#43,.T.);
#28=FACE_OUTER_BOUND('',#44,.T.);
#29=FACE_OUTER_BOUND('',#45,.T.);
#30=FACE_OUTER_BOUND('',#46,.T.);
#31=EDGE_LOOP('',(#201,#202,#203,#204));
#32=EDGE_LOOP('',(#205,#206,#207,#208));
#33=EDGE_LOOP('',(#209,#210,#211,#212,#213,#214,#215,#216,#217,#218,#219,
#220));
#34=EDGE_LOOP('',(#221,#222,#223,#224));
#35=EDGE_LOOP('',(#225,#226,#227,#228));
#36=EDGE_LOOP('',(#229,#230,#231,#232));
#37=EDGE_LOOP('',(#233,#234,#235,#236));
#38=EDGE_LOOP('',(#237,#238,#239,#240));
#39=EDGE_LOOP('',(#241,#242,#243,#244));
#40=EDGE_LOOP('',(#245,#246,#247,#248));
#41=EDGE_LOOP('',(#249,#250,#251,#252,#253,#254));
#42=EDGE_LOOP('',(#255,#256,#257,#258));
#43=EDGE_LOOP('',(#259,#260,#261,#262,#263,#264));
#44=EDGE_LOOP('',(#265,#266,#267,#268));
#45=EDGE_LOOP('',(#269,#270,#271,#272));
#46=EDGE_LOOP('',(#273,#274,#275,#276,#277,#278,#279,#280,#281,#282,#283,
#284));
#47=LINE('',#427,#89);
#48=LINE('',#429,#90);
#49=LINE('',#431,#91);
#50=LINE('',#432,#92);
#51=LINE('',#435,#93);
#52=LINE('',#437,#94);
#53=LINE('',#438,#95);
#54=LINE('',#442,#96);
#55=LINE('',#444,#97);
#56=LINE('',#446,#98);
#57=LINE('',#448,#99);
#58=LINE('',#450,#100);
#59=LINE('',#452,#101);
#60=LINE('',#454,#102);
#61=LINE('',#456,#103);
#62=LINE('',#457,#104);
#63=LINE('',#459,#105);
#64=LINE('',#460,#106);
#65=LINE('',#464,#107);
#66=LINE('',#465,#108);
#67=LINE('',#466,#109);
#68=LINE('',#469,#110);
#69=LINE('',#470,#111);
#70=LINE('',#473,#112);
#71=LINE('',#474,#113);
#72=LINE('',#477,#114);
#73=LINE('',#478,#115);
#74=LINE('',#481,#116);
#75=LINE('',#482,#117);
#76=LINE('',#485,#118);
#77=LINE('',#486,#119);
#78=LINE('',#489,#120);
#79=LINE('',#490,#121);
#80=LINE('',#493,#122);
#81=LINE('',#494,#123);
#82=LINE('',#497,#124);
#83=LINE('',#498,#125);
#84=LINE('',#501,#126);
#85=LINE('',#502,#127);
#86=LINE('',#505,#128);
#87=LINE('',#506,#129);
#88=LINE('',#508,#130);
#89=VECTOR('',#351,10.);
#90=VECTOR('',#352,10.);
#91=VECTOR('',#353,10.);
#92=VECTOR('',#354,10.);
#93=VECTOR('',#357,10.);
#94=VECTOR('',#358,10.);
#95=VECTOR('',#359,10.);
#96=VECTOR('',#362,10.);
#97=VECTOR('',#363,10.);
#98=VECTOR('',#364,10.);
#99=VECTOR('',#365,10.);
#100=VECTOR('',#366,10.);
#101=VECTOR('',#367,10.);
#102=VECTOR('',#368,10.);
#103=VECTOR('',#369,10.);
#104=VECTOR('',#370,10.);
#105=VECTOR('',#371,10.);
#106=VECTOR('',#372,10.);
#107=VECTOR('',#375,10.);
#108=VECTOR('',#376,10.);
#109=VECTOR('',#377,10.);
#110=VECTOR('',#380,10.);
#111=VECTOR('',#381,10.);
#112=VECTOR('',#384,10.);
#113=VECTOR('',#385,10.);
#114=VECTOR('',#388,10.);
#115=VECTOR('',#389,10.);
#116=VECTOR('',#392,10.);
#117=VECTOR('',#393,10.);
#118=VECTOR('',#396,10.);
#119=VECTOR('',#397,10.);
#120=VECTOR('',#400,10.);
#121=VECTOR('',#401,10.);
#122=VECTOR('',#404,10.);
#123=VECTOR('',#405,10.);
#124=VECTOR('',#408,10.);
#125=VECTOR('',#409,10.);
#126=VECTOR('',#412,10.);
#127=VECTOR('',#413,10.);
#128=VECTOR('',#416,10.);
#129=VECTOR('',#417,10.);
#130=VECTOR('',#420,10.);
#131=VERTEX_POINT('',#425);
#132=VERTEX_POINT('',#426);
#133=VERTEX_POINT('',#428);
#134=VERTEX_POINT('',#430);
#135=VERTEX_POINT('',#434);
#136=VERTEX_POINT('',#436);
#137=VERTEX_POINT('',#440);
#138=VERTEX_POINT('',#441);
#139=VERTEX_POINT('',#443);
#140=VERTEX_POINT('',#445);
#141=VERTEX_POINT('',#447);
#142=VERTEX_POINT('',#449);
#143=VERTEX_POINT('',#451);
#144=VERTEX_POINT('',#453);
#145=VERTEX_POINT('',#455);
#146=VERTEX_POINT('',#458);
#147=VERTEX_POINT('',#462);
#148=VERTEX_POINT('',#463);
#149=VERTEX_POINT('',#468);
#150=VERTEX_POINT('',#472);
#151=VERTEX_POINT('',#476);
#152=VERTEX_POINT('',#480);
#153=VERTEX_POINT('',#484);
#154=VERTEX_POINT('',#488);
#155=VERTEX_POINT('',#492);
#156=VERTEX_POINT('',#496);
#157=VERTEX_POINT('',#500);
#158=VERTEX_POINT('',#504);
#159=EDGE_CURVE('',#131,#132,#47,.T.);
#160=EDGE_CURVE('',#133,#131,#48,.F.);
#161=EDGE_CURVE('',#134,#133,#49,.T.);
#162=EDGE_CURVE('',#134,#132,#50,.T.);
#163=EDGE_CURVE('',#132,#135,#51,.F.);
#164=EDGE_CURVE('',#135,#136,#52,.F.);
#165=EDGE_CURVE('',#136,#131,#53,.F.);
#166=EDGE_CURVE('',#137,#138,#54,.T.);
#167=EDGE_CURVE('',#138,#139,#55,.T.);
#168=EDGE_CURVE('',#139,#140,#56,.T.);
#169=EDGE_CURVE('',#140,#141,#57,.T.);
#170=EDGE_CURVE('',#141,#142,#58,.T.);
#171=EDGE_CURVE('',#142,#143,#59,.T.);
#172=EDGE_CURVE('',#143,#144,#60,.T.);
#173=EDGE_CURVE('',#144,#145,#61,.T.);
#174=EDGE_CURVE('',#134,#145,#62,.T.);
#175=EDGE_CURVE('',#133,#146,#63,.T.);
#176=EDGE_CURVE('',#146,#137,#64,.T.);
#177=EDGE_CURVE('',#147,#148,#65,.T.);
#178=EDGE_CURVE('',#147,#143,#66,.T.);
#179=EDGE_CURVE('',#148,#142,#67,.T.);
#180=EDGE_CURVE('',#148,#149,#68,.T.);
#181=EDGE_CURVE('',#149,#141,#69,.T.);
#182=EDGE_CURVE('',#149,#150,#70,.T.);
#183=EDGE_CURVE('',#150,#140,#71,.T.);
#184=EDGE_CURVE('',#150,#151,#72,.T.);
#185=EDGE_CURVE('',#151,#139,#73,.T.);
#186=EDGE_CURVE('',#151,#152,#74,.T.);
#187=EDGE_CURVE('',#152,#138,#75,.T.);
#188=EDGE_CURVE('',#152,#153,#76,.T.);
#189=EDGE_CURVE('',#153,#137,#77,.T.);
#190=EDGE_CURVE('',#153,#154,#78,.T.);
#191=EDGE_CURVE('',#154,#146,#79,.T.);
#192=EDGE_CURVE('',#154,#155,#80,.T.);
#193=EDGE_CURVE('',#155,#136,#81,.T.);
#194=EDGE_CURVE('',#156,#155,#82,.T.);
#195=EDGE_CURVE('',#156,#135,#83,.T.);
#196=EDGE_CURVE('',#157,#156,#84,.T.);
#197=EDGE_CURVE('',#157,#145,#85,.T.);
#198=EDGE_CURVE('',#158,#157,#86,.T.);
#199=EDGE_CURVE('',#158,#144,#87,.T.);
#200=EDGE_CURVE('',#158,#147,#88,.T.);
#201=ORIENTED_EDGE('',*,*,#159,.F.);
#202=ORIENTED_EDGE('',*,*,#160,.F.);
#203=ORIENTED_EDGE('',*,*,#161,.F.);
#204=ORIENTED_EDGE('',*,*,#162,.T.);
#205=ORIENTED_EDGE('',*,*,#163,.T.);
#206=ORIENTED_EDGE('',*,*,#164,.T.);
#207=ORIENTED_EDGE('',*,*,#165,.T.);
#208=ORIENTED_EDGE('',*,*,#159,.T.);
#209=ORIENTED_EDGE('',*,*,#166,.T.);
#210=ORIENTED_EDGE('',*,*,#167,.T.);
#211=ORIENTED_EDGE('',*,*,#168,.T.);
#212=ORIENTED_EDGE('',*,*,#169,.T.);
#213=ORIENTED_EDGE('',*,*,#170,.T.);
#214=ORIENTED_EDGE('',*,*,#171,.T.);
#215=ORIENTED_EDGE('',*,*,#172,.T.);
#216=ORIENTED_EDGE('',*,*,#173,.T.);
#217=ORIENTED_EDGE('',*,*,#174,.F.);
#218=ORIENTED_EDGE('',*,*,#161,.T.);
#219=ORIENTED_EDGE('',*,*,#175,.T.);
#220=ORIENTED_EDGE('',*,*,#176,.T.);
#221=ORIENTED_EDGE('',*,*,#177,.F.);
#222=ORIENTED_EDGE('',*,*,#178,.T.);
#223=ORIENTED_EDGE('',*,*,#171,.F.);
#224=ORIENTED_EDGE('',*,*,#179,.F.);
#225=ORIENTED_EDGE('',*,*,#180,.F.);
#226=ORIENTED_EDGE('',*,*,#179,.T.);
#227=ORIENTED_EDGE('',*,*,#170,.F.);
#228=ORIENTED_EDGE('',*,*,#181,.F.);
#229=ORIENTED_EDGE('',*,*,#182,.F.);
#230=ORIENTED_EDGE('',*,*,#181,.T.);
#231=ORIENTED_EDGE('',*,*,#169,.F.);
#232=ORIENTED_EDGE('',*,*,#183,.F.);
#233=ORIENTED_EDGE('',*,*,#184,.F.);
#234=ORIENTED_EDGE('',*,*,#183,.T.);
#235=ORIENTED_EDGE('',*,*,#168,.F.);
#236=ORIENTED_EDGE('',*,*,#185,.F.);
#237=ORIENTED_EDGE('',*,*,#186,.F.);
#238=ORIENTED_EDGE('',*,*,#185,.T.);
#239=ORIENTED_EDGE('',*,*,#167,.F.);
#240=ORIENTED_EDGE('',*,*,#187,.F.);
#241=ORIENTED_EDGE('',*,*,#188,.F.);
#242=ORIENTED_EDGE('',*,*,#187,.T.);
#243=ORIENTED_EDGE('',*,*,#166,.F.);
#244=ORIENTED_EDGE('',*,*,#189,.F.);
#245=ORIENTED_EDGE('',*,*,#190,.F.);
#246=ORIENTED_EDGE('',*,*,#189,.T.);
#247=ORIENTED_EDGE('',*,*,#176,.F.);
#248=ORIENTED_EDGE('',*,*,#191,.F.);
#249=ORIENTED_EDGE('',*,*,#192,.F.);
#250=ORIENTED_EDGE('',*,*,#191,.T.);
#251=ORIENTED_EDGE('',*,*,#175,.F.);
#252=ORIENTED_EDGE('',*,*,#160,.T.);
#253=ORIENTED_EDGE('',*,*,#165,.F.);
#254=ORIENTED_EDGE('',*,*,#193,.F.);
#255=ORIENTED_EDGE('',*,*,#194,.T.);
#256=ORIENTED_EDGE('',*,*,#193,.T.);
#257=ORIENTED_EDGE('',*,*,#164,.F.);
#258=ORIENTED_EDGE('',*,*,#195,.F.);
#259=ORIENTED_EDGE('',*,*,#196,.T.);
#260=ORIENTED_EDGE('',*,*,#195,.T.);
#261=ORIENTED_EDGE('',*,*,#163,.F.);
#262=ORIENTED_EDGE('',*,*,#162,.F.);
#263=ORIENTED_EDGE('',*,*,#174,.T.);
#264=ORIENTED_EDGE('',*,*,#197,.F.);
#265=ORIENTED_EDGE('',*,*,#198,.T.);
#266=ORIENTED_EDGE('',*,*,#197,.T.);
#267=ORIENTED_EDGE('',*,*,#173,.F.);
#268=ORIENTED_EDGE('',*,*,#199,.F.);
#269=ORIENTED_EDGE('',*,*,#200,.F.);
#270=ORIENTED_EDGE('',*,*,#199,.T.);
#271=ORIENTED_EDGE('',*,*,#172,.F.);
#272=ORIENTED_EDGE('',*,*,#178,.F.);
#273=ORIENTED_EDGE('',*,*,#200,.T.);
#274=ORIENTED_EDGE('',*,*,#177,.T.);
#275=ORIENTED_EDGE('',*,*,#180,.T.);
#276=ORIENTED_EDGE('',*,*,#182,.T.);
#277=ORIENTED_EDGE('',*,*,#184,.T.);
#278=ORIENTED_EDGE('',*,*,#186,.T.);
#279=ORIENTED_EDGE('',*,*,#188,.T.);
#280=ORIENTED_EDGE('',*,*,#190,.T.);
#281=ORIENTED_EDGE('',*,*,#192,.T.);
#282=ORIENTED_EDGE('',*,*,#194,.F.);
#283=ORIENTED_EDGE('',*,*,#196,.F.);
#284=ORIENTED_EDGE('',*,*,#198,.F.);
#285=PLANE('',#331);
#286=PLANE('',#332);
#287=PLANE('',#333);
#288=PLANE('',#334);
#289=PLANE('',#335);
#290=PLANE('',#336);
#291=PLANE('',#337);
#292=PLANE('',#338);
#293=PLANE('',#339);
#294=PLANE('',#340);
#295=PLANE('',#341);
#296=PLANE('',#342);
#297=PLANE('',#343);
#298=PLANE('',#344);
#299=PLANE('',#345);
#300=PLANE('',#346);
#301=ADVANCED_FACE('',(#15),#285,.T.);
#302=ADVANCED_FACE('',(#16),#286,.F.);
#303=ADVANCED_FACE('',(#17),#287,.T.);
#304=ADVANCED_FACE('',(#18),#288,.T.);
#305=ADVANCED_FACE('',(#19),#289,.T.);
#306=ADVANCED_FACE('',(#20),#290,.T.);
#307=ADVANCED_FACE('',(#21),#291,.T.);
#308=ADVANCED_FACE('',(#22),#292,.T.);
#309=ADVANCED_FACE('',(#23),#293,.T.);
#310=ADVANCED_FACE('',(#24),#294,.T.);
#311=ADVANCED_FACE('',(#25),#295,.T.);
#312=ADVANCED_FACE('',(#26),#296,.T.);
#313=ADVANCED_FACE('',(#27),#297,.T.);
#314=ADVANCED_FACE('',(#28),#298,.T.);
#315=ADVANCED_FACE('',(#29),#299,.T.);
#316=ADVANCED_FACE('',(#30),#300,.T.);
#317=CLOSED_SHELL('',(#301,#302,#303,#304,#305,#306,#307,#308,#309,#310,
#311,#312,#313,#314,#315,#316));
#318=DERIVED_UNIT_ELEMENT(#320,1.);
#319=DERIVED_UNIT_ELEMENT(#515,-3.);
#320=(
MASS_UNIT()
NAMED_UNIT(*)
SI_UNIT(.KILO.,.GRAM.)
);
#321=DERIVED_UNIT((#318,#319));
#322=MEASURE_REPRESENTATION_ITEM('density measure',
POSITIVE_RATIO_MEASURE(7850.),#321);
#323=PROPERTY_DEFINITION_REPRESENTATION(#328,#325);
#324=PROPERTY_DEFINITION_REPRESENTATION(#329,#326);
#325=REPRESENTATION('material name',(#327),#512);
#326=REPRESENTATION('density',(#322),#512);
#327=DESCRIPTIVE_REPRESENTATION_ITEM('Acero','Acero');
#328=PROPERTY_DEFINITION('material property','material name',#522);
#329=PROPERTY_DEFINITION('material property','density of part',#522);
#330=AXIS2_PLACEMENT_3D('',#423,#347,#348);
#331=AXIS2_PLACEMENT_3D('',#424,#349,#350);
#332=AXIS2_PLACEMENT_3D('',#433,#355,#356);
#333=AXIS2_PLACEMENT_3D('',#439,#360,#361);
#334=AXIS2_PLACEMENT_3D('',#461,#373,#374);
#335=AXIS2_PLACEMENT_3D('',#467,#378,#379);
#336=AXIS2_PLACEMENT_3D('',#471,#382,#383);
#337=AXIS2_PLACEMENT_3D('',#475,#386,#387);
#338=AXIS2_PLACEMENT_3D('',#479,#390,#391);
#339=AXIS2_PLACEMENT_3D('',#483,#394,#395);
#340=AXIS2_PLACEMENT_3D('',#487,#398,#399);
#341=AXIS2_PLACEMENT_3D('',#491,#402,#403);
#342=AXIS2_PLACEMENT_3D('',#495,#406,#407);
#343=AXIS2_PLACEMENT_3D('',#499,#410,#411);
#344=AXIS2_PLACEMENT_3D('',#503,#414,#415);
#345=AXIS2_PLACEMENT_3D('',#507,#418,#419);
#346=AXIS2_PLACEMENT_3D('',#509,#421,#422);
#347=DIRECTION('axis',(0.,0.,1.));
#348=DIRECTION('refdir',(1.,0.,0.));
#349=DIRECTION('center_axis',(8.59527502935604E-15,1.,0.));
#350=DIRECTION('ref_axis',(-1.,8.59527502935604E-15,0.));
#351=DIRECTION('',(-1.,8.59527502935604E-15,0.));
#352=DIRECTION('',(0.,0.,-1.));
#353=DIRECTION('',(1.,-8.59527502935604E-15,0.));
#354=DIRECTION('',(0.,0.,1.));
#355=DIRECTION('center_axis',(0.,0.,-1.));
#356=DIRECTION('ref_axis',(-1.,0.,0.));
#357=DIRECTION('',(0.,1.,0.));
#358=DIRECTION('',(-1.,0.,0.));
#359=DIRECTION('',(0.,-1.,0.));
#360=DIRECTION('center_axis',(0.,0.,1.));
#361=DIRECTION('ref_axis',(1.,0.,0.));
#362=DIRECTION('',(8.40168775392028E-15,1.,0.));
#363=DIRECTION('',(-1.,5.5511151231258E-15,0.));
#364=DIRECTION('',(5.85069911389764E-15,1.,0.));
#365=DIRECTION('',(-1.,5.82431155687703E-15,0.));
#366=DIRECTION('',(-5.70971841235793E-15,-1.,0.));
#367=DIRECTION('',(-1.,5.55042200733057E-15,0.));
#368=DIRECTION('',(-5.70114526158868E-15,-1.,0.));
#369=DIRECTION('',(1.,0.,0.));
#370=DIRECTION('',(0.,-1.,0.));
#371=DIRECTION('',(0.,-1.,0.));
#372=DIRECTION('',(1.,0.,0.));
#373=DIRECTION('center_axis',(5.55042200733057E-15,1.,0.));
#374=DIRECTION('ref_axis',(-1.,5.55042200733057E-15,0.));
#375=DIRECTION('',(1.,-5.55042200733057E-15,0.));
#376=DIRECTION('',(0.,0.,1.));
#377=DIRECTION('',(0.,0.,1.));
#378=DIRECTION('center_axis',(-1.,5.70971841235793E-15,0.));
#379=DIRECTION('ref_axis',(-5.70971841235793E-15,-1.,0.));
#380=DIRECTION('',(5.70971841235793E-15,1.,0.));
#381=DIRECTION('',(0.,0.,1.));
#382=DIRECTION('center_axis',(5.82431155687703E-15,1.,0.));
#383=DIRECTION('ref_axis',(-1.,5.82431155687703E-15,0.));
#384=DIRECTION('',(1.,-5.82431155687703E-15,0.));
#385=DIRECTION('',(0.,0.,1.));
#386=DIRECTION('center_axis',(1.,-5.85069911389764E-15,0.));
#387=DIRECTION('ref_axis',(5.85069911389764E-15,1.,0.));
#388=DIRECTION('',(-5.85069911389764E-15,-1.,0.));
#389=DIRECTION('',(0.,0.,1.));
#390=DIRECTION('center_axis',(5.5511151231258E-15,1.,0.));
#391=DIRECTION('ref_axis',(-1.,5.5511151231258E-15,0.));
#392=DIRECTION('',(1.,-5.5511151231258E-15,0.));
#393=DIRECTION('',(0.,0.,1.));
#394=DIRECTION('center_axis',(1.,-8.40168775392028E-15,0.));
#395=DIRECTION('ref_axis',(8.40168775392028E-15,1.,0.));
#396=DIRECTION('',(-8.40168775392028E-15,-1.,0.));
#397=DIRECTION('',(0.,0.,1.));
#398=DIRECTION('center_axis',(0.,-1.,0.));
#399=DIRECTION('ref_axis',(1.,0.,0.));
#400=DIRECTION('',(-1.,0.,0.));
#401=DIRECTION('',(0.,0.,1.));
#402=DIRECTION('center_axis',(1.,0.,0.));
#403=DIRECTION('ref_axis',(0.,1.,0.));
#404=DIRECTION('',(0.,-1.,0.));
#405=DIRECTION('',(0.,0.,1.));
#406=DIRECTION('center_axis',(0.,-1.,0.));
#407=DIRECTION('ref_axis',(1.,0.,0.));
#408=DIRECTION('',(1.,0.,0.));
#409=DIRECTION('',(0.,0.,1.));
#410=DIRECTION('center_axis',(-1.,0.,0.));
#411=DIRECTION('ref_axis',(0.,-1.,0.));
#412=DIRECTION('',(0.,-1.,0.));
#413=DIRECTION('',(0.,0.,1.));
#414=DIRECTION('center_axis',(0.,-1.,0.));
#415=DIRECTION('ref_axis',(1.,0.,0.));
#416=DIRECTION('',(1.,0.,0.));
#417=DIRECTION('',(0.,0.,1.));
#418=DIRECTION('center_axis',(-1.,5.70114526158868E-15,0.));
#419=DIRECTION('ref_axis',(-5.70114526158868E-15,-1.,0.));
#420=DIRECTION('',(5.70114526158868E-15,1.,0.));
#421=DIRECTION('center_axis',(0.,0.,-1.));
#422=DIRECTION('ref_axis',(-1.,0.,0.));
#423=CARTESIAN_POINT('',(0.,0.,0.));
#424=CARTESIAN_POINT('Origin',(1.57450298087615,-33.0008606591099,-9.55367342517964));
#425=CARTESIAN_POINT('',(1.57450298087613,-33.0008606591099,-4.79913934089014));
#426=CARTESIAN_POINT('',(-1.52549701912388,-33.0008606591098,-4.79913934089014));
#427=CARTESIAN_POINT('',(0.799502980876147,-33.0008606591099,-4.79913934089014));
#428=CARTESIAN_POINT('',(1.57450298087613,-33.0008606591099,-9.55367342517964));
#429=CARTESIAN_POINT('',(1.57450298087613,-33.0008606591099,-10.5036734251796));
#430=CARTESIAN_POINT('',(-1.52549701912388,-33.0008606591098,-9.55367342517964));
#431=CARTESIAN_POINT('',(0.799502980876128,-33.0008606591099,-9.55367342517964));
#432=CARTESIAN_POINT('',(-1.52549701912388,-33.0008606591098,-10.5036734251796));
#433=CARTESIAN_POINT('Origin',(0.0245029808761257,-35.7008606591099,-4.79913934089014));
#434=CARTESIAN_POINT('',(-1.52549701912388,-36.4008606591099,-4.79913934089014));
#435=CARTESIAN_POINT('',(-1.52549701912388,-35.3508606591099,-4.79913934089014));
#436=CARTESIAN_POINT('',(1.57450298087613,-36.4008606591099,-4.79913934089014));
#437=CARTESIAN_POINT('',(-0.750497019123875,-36.4008606591099,-4.79913934089014));
#438=CARTESIAN_POINT('',(1.57450298087613,-36.0508606591099,-4.79913934089014));
#439=CARTESIAN_POINT('Origin',(0.0245029808761293,-30.8383606591099,-9.55367342517964));
#440=CARTESIAN_POINT('',(4.67450298087612,-35.0008606591099,-9.55367342517964));
#441=CARTESIAN_POINT('',(4.67450298087614,-33.1508606591099,-9.55367342517964));
#442=CARTESIAN_POINT('',(4.67450298087614,-33.1508606591099,-9.55367342517964));
#443=CARTESIAN_POINT('',(3.07450298087614,-33.1508606591099,-9.55367342517964));
#444=CARTESIAN_POINT('',(3.07450298087614,-33.1508606591099,-9.55367342517964));
#445=CARTESIAN_POINT('',(3.07450298087619,-25.2758606591099,-9.55367342517964));
#446=CARTESIAN_POINT('',(3.07450298087619,-25.2758606591099,-9.55367342517964));
#447=CARTESIAN_POINT('',(-3.02529721715005,-25.2758606591099,-9.55367342517964));
#448=CARTESIAN_POINT('',(-3.02529721715005,-25.2758606591099,-9.55367342517964));
#449=CARTESIAN_POINT('',(-3.02529721715009,-33.1508606591099,-9.55367342517964));
#450=CARTESIAN_POINT('',(-3.02529721715009,-33.1508606591099,-9.55367342517964));
#451=CARTESIAN_POINT('',(-4.62549701912387,-33.1508606591099,-9.55367342517964));
#452=CARTESIAN_POINT('',(-4.62549701912387,-33.1508606591099,-9.55367342517964));
#453=CARTESIAN_POINT('',(-4.62549701912388,-35.0008606591099,-9.55367342517964));
#454=CARTESIAN_POINT('',(-4.62549701912388,-35.0008606591099,-9.55367342517964));
#455=CARTESIAN_POINT('',(-1.52549701912388,-35.0008606591099,-9.55367342517964));
#456=CARTESIAN_POINT('',(-4.62549701912388,-35.0008606591099,-9.55367342517964));
#457=CARTESIAN_POINT('',(-1.52549701912388,-32.9196106591099,-9.55367342517964));
#458=CARTESIAN_POINT('',(1.57450298087613,-35.0008606591099,-9.55367342517964));
#459=CARTESIAN_POINT('',(1.57450298087613,-33.6196106591099,-9.55367342517964));
#460=CARTESIAN_POINT('',(4.67450298087612,-35.0008606591099,-9.55367342517964));
#461=CARTESIAN_POINT('Origin',(-3.02529721715009,-33.1508606591099,-11.4536734251796));
#462=CARTESIAN_POINT('',(-4.62549701912387,-33.1508606591099,-11.4536734251796));
#463=CARTESIAN_POINT('',(-3.02529721715009,-33.1508606591099,-11.4536734251796));
#464=CARTESIAN_POINT('',(-4.62549701912387,-33.1508606591099,-11.4536734251796));
#465=CARTESIAN_POINT('',(-4.62549701912387,-33.1508606591099,-11.4536734251796));
#466=CARTESIAN_POINT('',(-3.02529721715009,-33.1508606591099,-11.4536734251796));
#467=CARTESIAN_POINT('Origin',(-3.02529721715005,-25.2758606591099,-11.4536734251796));
#468=CARTESIAN_POINT('',(-3.02529721715005,-25.2758606591099,-11.4536734251796));
#469=CARTESIAN_POINT('',(-3.02529721715009,-33.1508606591099,-11.4536734251796));
#470=CARTESIAN_POINT('',(-3.02529721715005,-25.2758606591099,-11.4536734251796));
#471=CARTESIAN_POINT('Origin',(3.07450298087619,-25.2758606591099,-11.4536734251796));
#472=CARTESIAN_POINT('',(3.07450298087619,-25.2758606591099,-11.4536734251796));
#473=CARTESIAN_POINT('',(-3.02529721715005,-25.2758606591099,-11.4536734251796));
#474=CARTESIAN_POINT('',(3.07450298087619,-25.2758606591099,-11.4536734251796));
#475=CARTESIAN_POINT('Origin',(3.07450298087614,-33.1508606591099,-11.4536734251796));
#476=CARTESIAN_POINT('',(3.07450298087614,-33.1508606591099,-11.4536734251796));
#477=CARTESIAN_POINT('',(3.07450298087619,-25.2758606591099,-11.4536734251796));
#478=CARTESIAN_POINT('',(3.07450298087614,-33.1508606591099,-11.4536734251796));
#479=CARTESIAN_POINT('Origin',(4.67450298087614,-33.1508606591099,-11.4536734251796));
#480=CARTESIAN_POINT('',(4.67450298087614,-33.1508606591099,-11.4536734251796));
#481=CARTESIAN_POINT('',(3.07450298087614,-33.1508606591099,-11.4536734251796));
#482=CARTESIAN_POINT('',(4.67450298087614,-33.1508606591099,-11.4536734251796));
#483=CARTESIAN_POINT('Origin',(4.67450298087612,-35.0008606591099,-11.4536734251796));
#484=CARTESIAN_POINT('',(4.67450298087612,-35.0008606591099,-11.4536734251796));
#485=CARTESIAN_POINT('',(4.67450298087614,-33.1508606591099,-11.4536734251796));
#486=CARTESIAN_POINT('',(4.67450298087612,-35.0008606591099,-11.4536734251796));
#487=CARTESIAN_POINT('Origin',(1.57450298087613,-35.0008606591099,-11.4536734251796));
#488=CARTESIAN_POINT('',(1.57450298087613,-35.0008606591099,-11.4536734251796));
#489=CARTESIAN_POINT('',(4.67450298087612,-35.0008606591099,-11.4536734251796));
#490=CARTESIAN_POINT('',(1.57450298087613,-35.0008606591099,-11.4536734251796));
#491=CARTESIAN_POINT('Origin',(1.57450298087613,-36.4008606591099,-11.4536734251796));
#492=CARTESIAN_POINT('',(1.57450298087613,-36.4008606591099,-11.4536734251796));
#493=CARTESIAN_POINT('',(1.57450298087613,-35.0008606591099,-11.4536734251796));
#494=CARTESIAN_POINT('',(1.57450298087613,-36.4008606591099,-11.4536734251796));
#495=CARTESIAN_POINT('Origin',(-1.52549701912388,-36.4008606591099,-11.4536734251796));
#496=CARTESIAN_POINT('',(-1.52549701912388,-36.4008606591099,-11.4536734251796));
#497=CARTESIAN_POINT('',(-1.52549701912388,-36.4008606591099,-11.4536734251796));
#498=CARTESIAN_POINT('',(-1.52549701912388,-36.4008606591099,-11.4536734251796));
#499=CARTESIAN_POINT('Origin',(-1.52549701912388,-35.0008606591099,-11.4536734251796));
#500=CARTESIAN_POINT('',(-1.52549701912388,-35.0008606591099,-11.4536734251796));
#501=CARTESIAN_POINT('',(-1.52549701912388,-35.0008606591099,-11.4536734251796));
#502=CARTESIAN_POINT('',(-1.52549701912388,-35.0008606591099,-11.4536734251796));
#503=CARTESIAN_POINT('Origin',(-4.62549701912388,-35.0008606591099,-11.4536734251796));
#504=CARTESIAN_POINT('',(-4.62549701912388,-35.0008606591099,-11.4536734251796));
#505=CARTESIAN_POINT('',(-4.62549701912388,-35.0008606591099,-11.4536734251796));
#506=CARTESIAN_POINT('',(-4.62549701912388,-35.0008606591099,-11.4536734251796));
#507=CARTESIAN_POINT('Origin',(-4.62549701912387,-33.1508606591099,-11.4536734251796));
#508=CARTESIAN_POINT('',(-4.62549701912388,-35.0008606591099,-11.4536734251796));
#509=CARTESIAN_POINT('Origin',(0.0245029808761293,-30.8383606591099,-11.4536734251796));
#510=UNCERTAINTY_MEASURE_WITH_UNIT(LENGTH_MEASURE(0.01),#514,
'DISTANCE_ACCURACY_VALUE',
'Maximum model space distance between geometric entities at asserted c
onnectivities');
#511=UNCERTAINTY_MEASURE_WITH_UNIT(LENGTH_MEASURE(0.01),#514,
'DISTANCE_ACCURACY_VALUE',
'Maximum model space distance between geometric entities at asserted c
onnectivities');
#512=(
GEOMETRIC_REPRESENTATION_CONTEXT(3)
GLOBAL_UNCERTAINTY_ASSIGNED_CONTEXT((#510))
GLOBAL_UNIT_ASSIGNED_CONTEXT((#514,#516,#517))
REPRESENTATION_CONTEXT('','3D')
);
#513=(
GEOMETRIC_REPRESENTATION_CONTEXT(3)
GLOBAL_UNCERTAINTY_ASSIGNED_CONTEXT((#511))
GLOBAL_UNIT_ASSIGNED_CONTEXT((#514,#516,#517))
REPRESENTATION_CONTEXT('','3D')
);
#514=(
LENGTH_UNIT()
NAMED_UNIT(*)
SI_UNIT(.MILLI.,.METRE.)
);
#515=(
LENGTH_UNIT()
NAMED_UNIT(*)
SI_UNIT($,.METRE.)
);
#516=(
NAMED_UNIT(*)
PLANE_ANGLE_UNIT()
SI_UNIT($,.RADIAN.)
);
#517=(
NAMED_UNIT(*)
SI_UNIT($,.STERADIAN.)
SOLID_ANGLE_UNIT()
);
#518=SHAPE_DEFINITION_REPRESENTATION(#519,#520);
#519=PRODUCT_DEFINITION_SHAPE('',$,#522);
#520=SHAPE_REPRESENTATION('',(#330),#512);
#521=PRODUCT_DEFINITION_CONTEXT('part definition',#526,'design');
#522=PRODUCT_DEFINITION('Base -','Base -',#523,#521);
#523=PRODUCT_DEFINITION_FORMATION('',$,#528);
#524=PRODUCT_RELATED_PRODUCT_CATEGORY('Base -','Base -',(#528));
#525=APPLICATION_PROTOCOL_DEFINITION('international standard',
'automotive_design',2009,#526);
#526=APPLICATION_CONTEXT(
'Core Data for Automotive Mechanical Design Process');
#527=PRODUCT_CONTEXT('part definition',#526,'mechanical');
#528=PRODUCT('Base -','Base -',$,(#527));
#529=PRESENTATION_STYLE_ASSIGNMENT((#530));
#530=SURFACE_STYLE_USAGE(.BOTH.,#531);
#531=SURFACE_SIDE_STYLE('',(#532));
#532=SURFACE_STYLE_FILL_AREA(#533);
#533=FILL_AREA_STYLE('Acero - Satinado',(#534));
#534=FILL_AREA_STYLE_COLOUR('Acero - Satinado',#535);
#535=COLOUR_RGB('Acero - Satinado',0.627450980392157,0.627450980392157,
0.627450980392157);
ENDSEC;
END-ISO-10303-21;
