ISO-10303-21;
HEADER;
/* Generated by software containing ST-Developer
 * from STEP Tools, Inc. (www.steptools.com) 
 */

FILE_DESCRIPTION(
/* description */ (''),
/* implementation_level */ '2;1');

FILE_NAME(
/* name */ 'Base +.step',
/* time_stamp */ '2026-06-20T11:08:36+02:00',
/* author */ (''),
/* organization */ (''),
/* preprocessor_version */ 'ST-DEVELOPER v20.1',
/* originating_system */ 'Autodesk Translation Framework v15.8.0.0',
/* authorisation */ '');

FILE_SCHEMA (('AUTOMOTIVE_DESIGN { 1 0 10303 214 3 1 1 }'));
ENDSEC;

DATA;
#10=MECHANICAL_DESIGN_GEOMETRIC_PRESENTATION_REPRESENTATION('',(#13),#381);
#11=SHAPE_REPRESENTATION_RELATIONSHIP('SRR','None',#388,#12);
#12=ADVANCED_BREP_SHAPE_REPRESENTATION('',(#14),#380);
#13=STYLED_ITEM('',(#397),#14);
#14=MANIFOLD_SOLID_BREP('Base +',#233);
#15=FACE_OUTER_BOUND('',#27,.T.);
#16=FACE_OUTER_BOUND('',#28,.T.);
#17=FACE_OUTER_BOUND('',#29,.T.);
#18=FACE_OUTER_BOUND('',#30,.T.);
#19=FACE_OUTER_BOUND('',#31,.T.);
#20=FACE_OUTER_BOUND('',#32,.T.);
#21=FACE_OUTER_BOUND('',#33,.T.);
#22=FACE_OUTER_BOUND('',#34,.T.);
#23=FACE_OUTER_BOUND('',#35,.T.);
#24=FACE_OUTER_BOUND('',#36,.T.);
#25=FACE_OUTER_BOUND('',#37,.T.);
#26=FACE_OUTER_BOUND('',#38,.T.);
#27=EDGE_LOOP('',(#149,#150,#151,#152));
#28=EDGE_LOOP('',(#153,#154,#155,#156));
#29=EDGE_LOOP('',(#157,#158,#159,#160));
#30=EDGE_LOOP('',(#161,#162,#163,#164));
#31=EDGE_LOOP('',(#165,#166,#167,#168,#169,#170));
#32=EDGE_LOOP('',(#171,#172,#173,#174));
#33=EDGE_LOOP('',(#175,#176,#177,#178,#179,#180));
#34=EDGE_LOOP('',(#181,#182,#183,#184));
#35=EDGE_LOOP('',(#185,#186,#187,#188));
#36=EDGE_LOOP('',(#189,#190,#191,#192));
#37=EDGE_LOOP('',(#193,#194,#195,#196,#197,#198,#199,#200));
#38=EDGE_LOOP('',(#201,#202,#203,#204,#205,#206,#207,#208));
#39=LINE('',#319,#69);
#40=LINE('',#321,#70);
#41=LINE('',#323,#71);
#42=LINE('',#324,#72);
#43=LINE('',#327,#73);
#44=LINE('',#329,#74);
#45=LINE('',#330,#75);
#46=LINE('',#334,#76);
#47=LINE('',#336,#77);
#48=LINE('',#338,#78);
#49=LINE('',#339,#79);
#50=LINE('',#342,#80);
#51=LINE('',#344,#81);
#52=LINE('',#345,#82);
#53=LINE('',#348,#83);
#54=LINE('',#349,#84);
#55=LINE('',#350,#85);
#56=LINE('',#353,#86);
#57=LINE('',#354,#87);
#58=LINE('',#357,#88);
#59=LINE('',#359,#89);
#60=LINE('',#360,#90);
#61=LINE('',#363,#91);
#62=LINE('',#365,#92);
#63=LINE('',#366,#93);
#64=LINE('',#369,#94);
#65=LINE('',#371,#95);
#66=LINE('',#372,#96);
#67=LINE('',#374,#97);
#68=LINE('',#375,#98);
#69=VECTOR('',#263,10.);
#70=VECTOR('',#264,10.);
#71=VECTOR('',#265,10.);
#72=VECTOR('',#266,10.);
#73=VECTOR('',#269,10.);
#74=VECTOR('',#270,10.);
#75=VECTOR('',#271,10.);
#76=VECTOR('',#274,10.);
#77=VECTOR('',#275,10.);
#78=VECTOR('',#276,10.);
#79=VECTOR('',#277,10.);
#80=VECTOR('',#280,10.);
#81=VECTOR('',#281,10.);
#82=VECTOR('',#282,10.);
#83=VECTOR('',#285,10.);
#84=VECTOR('',#286,10.);
#85=VECTOR('',#287,10.);
#86=VECTOR('',#290,10.);
#87=VECTOR('',#291,10.);
#88=VECTOR('',#294,10.);
#89=VECTOR('',#295,10.);
#90=VECTOR('',#296,10.);
#91=VECTOR('',#299,10.);
#92=VECTOR('',#300,10.);
#93=VECTOR('',#301,10.);
#94=VECTOR('',#304,10.);
#95=VECTOR('',#305,10.);
#96=VECTOR('',#306,10.);
#97=VECTOR('',#309,10.);
#98=VECTOR('',#310,10.);
#99=VERTEX_POINT('',#317);
#100=VERTEX_POINT('',#318);
#101=VERTEX_POINT('',#320);
#102=VERTEX_POINT('',#322);
#103=VERTEX_POINT('',#326);
#104=VERTEX_POINT('',#328);
#105=VERTEX_POINT('',#332);
#106=VERTEX_POINT('',#333);
#107=VERTEX_POINT('',#335);
#108=VERTEX_POINT('',#337);
#109=VERTEX_POINT('',#341);
#110=VERTEX_POINT('',#343);
#111=VERTEX_POINT('',#347);
#112=VERTEX_POINT('',#352);
#113=VERTEX_POINT('',#356);
#114=VERTEX_POINT('',#358);
#115=VERTEX_POINT('',#362);
#116=VERTEX_POINT('',#364);
#117=VERTEX_POINT('',#368);
#118=VERTEX_POINT('',#370);
#119=EDGE_CURVE('',#99,#100,#39,.T.);
#120=EDGE_CURVE('',#101,#99,#40,.F.);
#121=EDGE_CURVE('',#102,#101,#41,.T.);
#122=EDGE_CURVE('',#102,#100,#42,.T.);
#123=EDGE_CURVE('',#103,#99,#43,.F.);
#124=EDGE_CURVE('',#100,#104,#44,.F.);
#125=EDGE_CURVE('',#104,#103,#45,.F.);
#126=EDGE_CURVE('',#105,#106,#46,.T.);
#127=EDGE_CURVE('',#105,#107,#47,.T.);
#128=EDGE_CURVE('',#108,#107,#48,.T.);
#129=EDGE_CURVE('',#106,#108,#49,.T.);
#130=EDGE_CURVE('',#106,#109,#50,.T.);
#131=EDGE_CURVE('',#110,#108,#51,.T.);
#132=EDGE_CURVE('',#109,#110,#52,.T.);
#133=EDGE_CURVE('',#109,#111,#53,.T.);
#134=EDGE_CURVE('',#101,#110,#54,.T.);
#135=EDGE_CURVE('',#111,#103,#55,.T.);
#136=EDGE_CURVE('',#111,#112,#56,.T.);
#137=EDGE_CURVE('',#112,#104,#57,.T.);
#138=EDGE_CURVE('',#112,#113,#58,.T.);
#139=EDGE_CURVE('',#102,#114,#59,.T.);
#140=EDGE_CURVE('',#113,#114,#60,.T.);
#141=EDGE_CURVE('',#113,#115,#61,.T.);
#142=EDGE_CURVE('',#116,#114,#62,.T.);
#143=EDGE_CURVE('',#115,#116,#63,.T.);
#144=EDGE_CURVE('',#115,#117,#64,.T.);
#145=EDGE_CURVE('',#118,#116,#65,.T.);
#146=EDGE_CURVE('',#117,#118,#66,.T.);
#147=EDGE_CURVE('',#117,#105,#67,.T.);
#148=EDGE_CURVE('',#107,#118,#68,.T.);
#149=ORIENTED_EDGE('',*,*,#119,.F.);
#150=ORIENTED_EDGE('',*,*,#120,.F.);
#151=ORIENTED_EDGE('',*,*,#121,.F.);
#152=ORIENTED_EDGE('',*,*,#122,.T.);
#153=ORIENTED_EDGE('',*,*,#123,.T.);
#154=ORIENTED_EDGE('',*,*,#119,.T.);
#155=ORIENTED_EDGE('',*,*,#124,.T.);
#156=ORIENTED_EDGE('',*,*,#125,.T.);
#157=ORIENTED_EDGE('',*,*,#126,.F.);
#158=ORIENTED_EDGE('',*,*,#127,.T.);
#159=ORIENTED_EDGE('',*,*,#128,.F.);
#160=ORIENTED_EDGE('',*,*,#129,.F.);
#161=ORIENTED_EDGE('',*,*,#130,.F.);
#162=ORIENTED_EDGE('',*,*,#129,.T.);
#163=ORIENTED_EDGE('',*,*,#131,.F.);
#164=ORIENTED_EDGE('',*,*,#132,.F.);
#165=ORIENTED_EDGE('',*,*,#133,.F.);
#166=ORIENTED_EDGE('',*,*,#132,.T.);
#167=ORIENTED_EDGE('',*,*,#134,.F.);
#168=ORIENTED_EDGE('',*,*,#120,.T.);
#169=ORIENTED_EDGE('',*,*,#123,.F.);
#170=ORIENTED_EDGE('',*,*,#135,.F.);
#171=ORIENTED_EDGE('',*,*,#136,.F.);
#172=ORIENTED_EDGE('',*,*,#135,.T.);
#173=ORIENTED_EDGE('',*,*,#125,.F.);
#174=ORIENTED_EDGE('',*,*,#137,.F.);
#175=ORIENTED_EDGE('',*,*,#138,.F.);
#176=ORIENTED_EDGE('',*,*,#137,.T.);
#177=ORIENTED_EDGE('',*,*,#124,.F.);
#178=ORIENTED_EDGE('',*,*,#122,.F.);
#179=ORIENTED_EDGE('',*,*,#139,.T.);
#180=ORIENTED_EDGE('',*,*,#140,.F.);
#181=ORIENTED_EDGE('',*,*,#141,.F.);
#182=ORIENTED_EDGE('',*,*,#140,.T.);
#183=ORIENTED_EDGE('',*,*,#142,.F.);
#184=ORIENTED_EDGE('',*,*,#143,.F.);
#185=ORIENTED_EDGE('',*,*,#144,.F.);
#186=ORIENTED_EDGE('',*,*,#143,.T.);
#187=ORIENTED_EDGE('',*,*,#145,.F.);
#188=ORIENTED_EDGE('',*,*,#146,.F.);
#189=ORIENTED_EDGE('',*,*,#147,.F.);
#190=ORIENTED_EDGE('',*,*,#146,.T.);
#191=ORIENTED_EDGE('',*,*,#148,.F.);
#192=ORIENTED_EDGE('',*,*,#127,.F.);
#193=ORIENTED_EDGE('',*,*,#147,.T.);
#194=ORIENTED_EDGE('',*,*,#126,.T.);
#195=ORIENTED_EDGE('',*,*,#130,.T.);
#196=ORIENTED_EDGE('',*,*,#133,.T.);
#197=ORIENTED_EDGE('',*,*,#136,.T.);
#198=ORIENTED_EDGE('',*,*,#138,.T.);
#199=ORIENTED_EDGE('',*,*,#141,.T.);
#200=ORIENTED_EDGE('',*,*,#144,.T.);
#201=ORIENTED_EDGE('',*,*,#128,.T.);
#202=ORIENTED_EDGE('',*,*,#148,.T.);
#203=ORIENTED_EDGE('',*,*,#145,.T.);
#204=ORIENTED_EDGE('',*,*,#142,.T.);
#205=ORIENTED_EDGE('',*,*,#139,.F.);
#206=ORIENTED_EDGE('',*,*,#121,.T.);
#207=ORIENTED_EDGE('',*,*,#134,.T.);
#208=ORIENTED_EDGE('',*,*,#131,.T.);
#209=PLANE('',#247);
#210=PLANE('',#248);
#211=PLANE('',#249);
#212=PLANE('',#250);
#213=PLANE('',#251);
#214=PLANE('',#252);
#215=PLANE('',#253);
#216=PLANE('',#254);
#217=PLANE('',#255);
#218=PLANE('',#256);
#219=PLANE('',#257);
#220=PLANE('',#258);
#221=ADVANCED_FACE('',(#15),#209,.T.);
#222=ADVANCED_FACE('',(#16),#210,.F.);
#223=ADVANCED_FACE('',(#17),#211,.T.);
#224=ADVANCED_FACE('',(#18),#212,.T.);
#225=ADVANCED_FACE('',(#19),#213,.T.);
#226=ADVANCED_FACE('',(#20),#214,.T.);
#227=ADVANCED_FACE('',(#21),#215,.T.);
#228=ADVANCED_FACE('',(#22),#216,.T.);
#229=ADVANCED_FACE('',(#23),#217,.T.);
#230=ADVANCED_FACE('',(#24),#218,.T.);
#231=ADVANCED_FACE('',(#25),#219,.T.);
#232=ADVANCED_FACE('',(#26),#220,.T.);
#233=CLOSED_SHELL('',(#221,#222,#223,#224,#225,#226,#227,#228,#229,#230,
#231,#232));
#234=DERIVED_UNIT_ELEMENT(#236,1.);
#235=DERIVED_UNIT_ELEMENT(#383,-3.);
#236=(
MASS_UNIT()
NAMED_UNIT(*)
SI_UNIT(.KILO.,.GRAM.)
);
#237=DERIVED_UNIT((#234,#235));
#238=MEASURE_REPRESENTATION_ITEM('density measure',
POSITIVE_RATIO_MEASURE(7850.),#237);
#239=PROPERTY_DEFINITION_REPRESENTATION(#244,#241);
#240=PROPERTY_DEFINITION_REPRESENTATION(#245,#242);
#241=REPRESENTATION('material name',(#243),#380);
#242=REPRESENTATION('density',(#238),#380);
#243=DESCRIPTIVE_REPRESENTATION_ITEM('Acero','Acero');
#244=PROPERTY_DEFINITION('material property','material name',#390);
#245=PROPERTY_DEFINITION('material property','density of part',#390);
#246=AXIS2_PLACEMENT_3D('',#315,#259,#260);
#247=AXIS2_PLACEMENT_3D('',#316,#261,#262);
#248=AXIS2_PLACEMENT_3D('',#325,#267,#268);
#249=AXIS2_PLACEMENT_3D('',#331,#272,#273);
#250=AXIS2_PLACEMENT_3D('',#340,#278,#279);
#251=AXIS2_PLACEMENT_3D('',#346,#283,#284);
#252=AXIS2_PLACEMENT_3D('',#351,#288,#289);
#253=AXIS2_PLACEMENT_3D('',#355,#292,#293);
#254=AXIS2_PLACEMENT_3D('',#361,#297,#298);
#255=AXIS2_PLACEMENT_3D('',#367,#302,#303);
#256=AXIS2_PLACEMENT_3D('',#373,#307,#308);
#257=AXIS2_PLACEMENT_3D('',#376,#311,#312);
#258=AXIS2_PLACEMENT_3D('',#377,#313,#314);
#259=DIRECTION('axis',(0.,0.,1.));
#260=DIRECTION('refdir',(1.,0.,0.));
#261=DIRECTION('center_axis',(0.,-1.,0.));
#262=DIRECTION('ref_axis',(1.,0.,0.));
#263=DIRECTION('',(1.,0.,0.));
#264=DIRECTION('',(0.,0.,-1.));
#265=DIRECTION('',(-1.,0.,0.));
#266=DIRECTION('',(0.,0.,1.));
#267=DIRECTION('center_axis',(0.,0.,-1.));
#268=DIRECTION('ref_axis',(-1.,0.,0.));
#269=DIRECTION('',(0.,1.,0.));
#270=DIRECTION('',(0.,-1.,0.));
#271=DIRECTION('',(1.,0.,0.));
#272=DIRECTION('center_axis',(-1.,-7.93016446160825E-16,0.));
#273=DIRECTION('ref_axis',(7.93016446160825E-16,-1.,0.));
#274=DIRECTION('',(-7.93016446160825E-16,1.,0.));
#275=DIRECTION('',(0.,0.,1.));
#276=DIRECTION('',(7.93016446160825E-16,-1.,0.));
#277=DIRECTION('',(0.,0.,1.));
#278=DIRECTION('center_axis',(0.,1.,0.));
#279=DIRECTION('ref_axis',(-1.,0.,0.));
#280=DIRECTION('',(1.,0.,0.));
#281=DIRECTION('',(-1.,0.,0.));
#282=DIRECTION('',(0.,0.,1.));
#283=DIRECTION('center_axis',(-1.,0.,0.));
#284=DIRECTION('ref_axis',(0.,-1.,0.));
#285=DIRECTION('',(0.,1.,0.));
#286=DIRECTION('',(0.,1.,0.));
#287=DIRECTION('',(0.,0.,1.));
#288=DIRECTION('center_axis',(0.,1.,0.));
#289=DIRECTION('ref_axis',(-1.,0.,-7.16272919113004E-16));
#290=DIRECTION('',(1.,0.,7.16272919113004E-16));
#291=DIRECTION('',(0.,0.,1.));
#292=DIRECTION('center_axis',(1.,0.,0.));
#293=DIRECTION('ref_axis',(0.,1.,0.));
#294=DIRECTION('',(0.,-1.,0.));
#295=DIRECTION('',(0.,1.,0.));
#296=DIRECTION('',(0.,0.,1.));
#297=DIRECTION('center_axis',(0.,1.,0.));
#298=DIRECTION('ref_axis',(-1.,0.,0.));
#299=DIRECTION('',(1.,0.,0.));
#300=DIRECTION('',(-1.,0.,0.));
#301=DIRECTION('',(0.,0.,1.));
#302=DIRECTION('center_axis',(1.,-1.98254111540208E-14,0.));
#303=DIRECTION('ref_axis',(1.98254111540208E-14,1.,0.));
#304=DIRECTION('',(-1.98254111540208E-14,-1.,0.));
#305=DIRECTION('',(1.98254111540208E-14,1.,0.));
#306=DIRECTION('',(0.,0.,1.));
#307=DIRECTION('center_axis',(9.55030558817341E-16,-1.,0.));
#308=DIRECTION('ref_axis',(1.,9.55030558817341E-16,2.38757639704335E-16));
#309=DIRECTION('',(-1.,-9.55030558817341E-16,-2.38757639704335E-16));
#310=DIRECTION('',(1.,9.55030558817341E-16,2.38757639704335E-16));
#311=DIRECTION('center_axis',(0.,0.,-1.));
#312=DIRECTION('ref_axis',(-1.,0.,0.));
#313=DIRECTION('center_axis',(0.,0.,1.));
#314=DIRECTION('ref_axis',(1.,0.,0.));
#315=CARTESIAN_POINT('',(0.,0.,0.));
#316=CARTESIAN_POINT('Origin',(-1.55000000000014,36.2036734251794,-9.55367342517964));
#317=CARTESIAN_POINT('',(-1.55000000000014,36.2036734251794,-4.80367342517964));
#318=CARTESIAN_POINT('',(1.54999999999987,36.2036734251794,-4.80367342517964));
#319=CARTESIAN_POINT('',(-0.775000000000135,36.2036734251794,-4.80367342517964));
#320=CARTESIAN_POINT('',(-1.55000000000014,36.2036734251794,-9.55367342517964));
#321=CARTESIAN_POINT('',(-1.55000000000014,36.2036734251794,-10.5036734251796));
#322=CARTESIAN_POINT('',(1.54999999999987,36.2036734251794,-9.55367342517964));
#323=CARTESIAN_POINT('',(-0.775000000000136,36.2036734251794,-9.55367342517964));
#324=CARTESIAN_POINT('',(1.54999999999987,36.2036734251794,-10.5036734251796));
#325=CARTESIAN_POINT('Origin',(-1.34336985979644E-13,37.4536734251794,-4.80367342517964));
#326=CARTESIAN_POINT('',(-1.55000000000014,38.2036734251794,-4.80367342517964));
#327=CARTESIAN_POINT('',(-1.55000000000014,37.8286734251794,-4.80367342517964));
#328=CARTESIAN_POINT('',(1.54999999999987,38.2036734251794,-4.80367342517964));
#329=CARTESIAN_POINT('',(1.54999999999987,37.0786734251794,-4.80367342517964));
#330=CARTESIAN_POINT('',(0.774999999999866,38.2036734251794,-4.80367342517964));
#331=CARTESIAN_POINT('Origin',(-4.65000000000014,36.7036734251794,-11.4536734251796));
#332=CARTESIAN_POINT('',(-4.65000000000014,35.3036734251794,-11.4536734251796));
#333=CARTESIAN_POINT('',(-4.65000000000014,36.7036734251794,-11.4536734251796));
#334=CARTESIAN_POINT('',(-4.65000000000014,35.3036734251794,-11.4536734251796));
#335=CARTESIAN_POINT('',(-4.65000000000014,35.3036734251794,-9.55367342517964));
#336=CARTESIAN_POINT('',(-4.65000000000014,35.3036734251794,-11.4536734251796));
#337=CARTESIAN_POINT('',(-4.65000000000014,36.7036734251794,-9.55367342517964));
#338=CARTESIAN_POINT('',(-4.65000000000014,35.3036734251794,-9.55367342517964));
#339=CARTESIAN_POINT('',(-4.65000000000014,36.7036734251794,-11.4536734251796));
#340=CARTESIAN_POINT('Origin',(-1.55000000000014,36.7036734251794,-11.4536734251796));
#341=CARTESIAN_POINT('',(-1.55000000000014,36.7036734251794,-11.4536734251796));
#342=CARTESIAN_POINT('',(-4.65000000000014,36.7036734251794,-11.4536734251796));
#343=CARTESIAN_POINT('',(-1.55000000000014,36.7036734251794,-9.55367342517964));
#344=CARTESIAN_POINT('',(-4.65000000000014,36.7036734251794,-9.55367342517964));
#345=CARTESIAN_POINT('',(-1.55000000000014,36.7036734251794,-11.4536734251796));
#346=CARTESIAN_POINT('Origin',(-1.55000000000014,38.2036734251794,-11.4536734251796));
#347=CARTESIAN_POINT('',(-1.55000000000014,38.2036734251794,-11.4536734251796));
#348=CARTESIAN_POINT('',(-1.55000000000014,36.7036734251794,-11.4536734251796));
#349=CARTESIAN_POINT('',(-1.55000000000014,37.4786734251794,-9.55367342517964));
#350=CARTESIAN_POINT('',(-1.55000000000014,38.2036734251794,-11.4536734251796));
#351=CARTESIAN_POINT('Origin',(1.54999999999987,38.2036734251794,-11.4536734251796));
#352=CARTESIAN_POINT('',(1.54999999999987,38.2036734251794,-11.4536734251796));
#353=CARTESIAN_POINT('',(-1.55000000000014,38.2036734251794,-11.4536734251796));
#354=CARTESIAN_POINT('',(1.54999999999987,38.2036734251794,-11.4536734251796));
#355=CARTESIAN_POINT('Origin',(1.54999999999987,36.7036734251794,-11.4536734251796));
#356=CARTESIAN_POINT('',(1.54999999999987,36.7036734251794,-11.4536734251796));
#357=CARTESIAN_POINT('',(1.54999999999987,38.2036734251794,-11.4536734251796));
#358=CARTESIAN_POINT('',(1.54999999999987,36.7036734251794,-9.55367342517964));
#359=CARTESIAN_POINT('',(1.54999999999987,36.7286734251794,-9.55367342517964));
#360=CARTESIAN_POINT('',(1.54999999999987,36.7036734251794,-11.4536734251796));
#361=CARTESIAN_POINT('Origin',(4.64999999999987,36.7036734251794,-11.4536734251796));
#362=CARTESIAN_POINT('',(4.64999999999987,36.7036734251794,-11.4536734251796));
#363=CARTESIAN_POINT('',(1.54999999999987,36.7036734251794,-11.4536734251796));
#364=CARTESIAN_POINT('',(4.64999999999987,36.7036734251794,-9.55367342517964));
#365=CARTESIAN_POINT('',(1.54999999999987,36.7036734251794,-9.55367342517964));
#366=CARTESIAN_POINT('',(4.64999999999987,36.7036734251794,-11.4536734251796));
#367=CARTESIAN_POINT('Origin',(4.64999999999984,35.3036734251794,-11.4536734251796));
#368=CARTESIAN_POINT('',(4.64999999999984,35.3036734251794,-11.4536734251796));
#369=CARTESIAN_POINT('',(4.64999999999987,36.7036734251794,-11.4536734251796));
#370=CARTESIAN_POINT('',(4.64999999999984,35.3036734251794,-9.55367342517964));
#371=CARTESIAN_POINT('',(4.64999999999987,36.7036734251794,-9.55367342517964));
#372=CARTESIAN_POINT('',(4.64999999999984,35.3036734251794,-11.4536734251796));
#373=CARTESIAN_POINT('Origin',(-4.65000000000014,35.3036734251794,-11.4536734251796));
#374=CARTESIAN_POINT('',(4.64999999999984,35.3036734251794,-11.4536734251796));
#375=CARTESIAN_POINT('',(4.64999999999984,35.3036734251794,-9.55367342517964));
#376=CARTESIAN_POINT('Origin',(-1.35447209004269E-13,36.7536734251794,-11.4536734251796));
#377=CARTESIAN_POINT('Origin',(-1.35447209004269E-13,36.7536734251794,-9.55367342517964));
#378=UNCERTAINTY_MEASURE_WITH_UNIT(LENGTH_MEASURE(0.01),#382,
'DISTANCE_ACCURACY_VALUE',
'Maximum model space distance between geometric entities at asserted c
onnectivities');
#379=UNCERTAINTY_MEASURE_WITH_UNIT(LENGTH_MEASURE(0.01),#382,
'DISTANCE_ACCURACY_VALUE',
'Maximum model space distance between geometric entities at asserted c
onnectivities');
#380=(
GEOMETRIC_REPRESENTATION_CONTEXT(3)
GLOBAL_UNCERTAINTY_ASSIGNED_CONTEXT((#378))
GLOBAL_UNIT_ASSIGNED_CONTEXT((#382,#384,#385))
REPRESENTATION_CONTEXT('','3D')
);
#381=(
GEOMETRIC_REPRESENTATION_CONTEXT(3)
GLOBAL_UNCERTAINTY_ASSIGNED_CONTEXT((#379))
GLOBAL_UNIT_ASSIGNED_CONTEXT((#382,#384,#385))
REPRESENTATION_CONTEXT('','3D')
);
#382=(
LENGTH_UNIT()
NAMED_UNIT(*)
SI_UNIT(.MILLI.,.METRE.)
);
#383=(
LENGTH_UNIT()
NAMED_UNIT(*)
SI_UNIT($,.METRE.)
);
#384=(
NAMED_UNIT(*)
PLANE_ANGLE_UNIT()
SI_UNIT($,.RADIAN.)
);
#385=(
NAMED_UNIT(*)
SI_UNIT($,.STERADIAN.)
SOLID_ANGLE_UNIT()
);
#386=SHAPE_DEFINITION_REPRESENTATION(#387,#388);
#387=PRODUCT_DEFINITION_SHAPE('',$,#390);
#388=SHAPE_REPRESENTATION('',(#246),#380);
#389=PRODUCT_DEFINITION_CONTEXT('part definition',#394,'design');
#390=PRODUCT_DEFINITION('Base +','Base +',#391,#389);
#391=PRODUCT_DEFINITION_FORMATION('',$,#396);
#392=PRODUCT_RELATED_PRODUCT_CATEGORY('Base +','Base +',(#396));
#393=APPLICATION_PROTOCOL_DEFINITION('international standard',
'automotive_design',2009,#394);
#394=APPLICATION_CONTEXT(
'Core Data for Automotive Mechanical Design Process');
#395=PRODUCT_CONTEXT('part definition',#394,'mechanical');
#396=PRODUCT('Base +','Base +',$,(#395));
#397=PRESENTATION_STYLE_ASSIGNMENT((#398));
#398=SURFACE_STYLE_USAGE(.BOTH.,#399);
#399=SURFACE_SIDE_STYLE('',(#400));
#400=SURFACE_STYLE_FILL_AREA(#401);
#401=FILL_AREA_STYLE('Acero - Satinado',(#402));
#402=FILL_AREA_STYLE_COLOUR('Acero - Satinado',#403);
#403=COLOUR_RGB('Acero - Satinado',0.627450980392157,0.627450980392157,
0.627450980392157);
ENDSEC;
END-ISO-10303-21;
