ISO-10303-21;
HEADER;
/* Generated by software containing ST-Developer
 * from STEP Tools, Inc. (www.steptools.com) 
 */

FILE_DESCRIPTION(
/* description */ (''),
/* implementation_level */ '2;1');

FILE_NAME(
/* name */ 'Superior.step',
/* time_stamp */ '2026-06-20T11:08:21+02:00',
/* author */ (''),
/* organization */ (''),
/* preprocessor_version */ 'ST-DEVELOPER v20.1',
/* originating_system */ 'Autodesk Translation Framework v15.8.0.0',
/* authorisation */ '');

FILE_SCHEMA (('AUTOMOTIVE_DESIGN { 1 0 10303 214 3 1 1 }'));
ENDSEC;

DATA;
#10=MECHANICAL_DESIGN_GEOMETRIC_PRESENTATION_REPRESENTATION('',(#13),#729);
#11=SHAPE_REPRESENTATION_RELATIONSHIP('SRR','None',#736,#12);
#12=ADVANCED_BREP_SHAPE_REPRESENTATION('',(#14),#728);
#13=STYLED_ITEM('',(#745),#14);
#14=MANIFOLD_SOLID_BREP('Superior',#405);
#15=ELLIPSE('',#437,9.08844815266756,9.);
#16=B_SPLINE_CURVE_WITH_KNOTS('',3,(#624,#625,#626,#627,#628,#629,#630,
#631,#632,#633),.UNSPECIFIED.,.F.,.F.,(4,2,2,2,4),(-0.434812438719135,-0.325708344910341,
-0.216604251101546,-0.108302125550773,0.),.UNSPECIFIED.);
#17=B_SPLINE_CURVE_WITH_KNOTS('',3,(#637,#638,#639,#640,#641,#642,#643,
#644,#645,#646),.UNSPECIFIED.,.F.,.F.,(4,2,2,2,4),(0.,0.108302125550773,
0.216604251101546,0.325708344910341,0.434812438719135),.UNSPECIFIED.);
#18=B_SPLINE_CURVE_WITH_KNOTS('',3,(#650,#651,#652,#653,#654,#655,#656,
#657,#658,#659,#660,#661,#662,#663,#664,#665,#666,#667),.UNSPECIFIED.,.F.,
 .F.,(4,2,2,2,2,2,2,2,4),(-0.866090787564033,-0.758018948905915,-0.649947110247797,
-0.542379774483279,-0.434812438718761,-0.32570834491006,-0.21660425110136,
-0.10830212555068,0.),.UNSPECIFIED.);
#19=B_SPLINE_CURVE_WITH_KNOTS('',3,(#675,#676,#677,#678,#679,#680,#681,
#682,#683,#684,#685,#686,#687,#688,#689,#690,#691,#692),.UNSPECIFIED.,.F.,
 .F.,(4,2,2,2,2,2,2,2,4),(0.,0.10830212555068,0.216604251101359,0.32570834491006,
0.434812438718761,0.542379774483279,0.649947110247797,0.758018948905915,
0.866090787564032),.UNSPECIFIED.);
#20=PLANE('',#422);
#21=PLANE('',#423);
#22=PLANE('',#427);
#23=PLANE('',#428);
#24=PLANE('',#429);
#25=PLANE('',#432);
#26=PLANE('',#433);
#27=PLANE('',#434);
#28=PLANE('',#438);
#29=PLANE('',#439);
#30=PLANE('',#441);
#31=PLANE('',#443);
#32=PLANE('',#446);
#33=PLANE('',#448);
#34=PLANE('',#449);
#35=FACE_OUTER_BOUND('',#57,.T.);
#36=FACE_OUTER_BOUND('',#58,.T.);
#37=FACE_OUTER_BOUND('',#59,.T.);
#38=FACE_OUTER_BOUND('',#60,.T.);
#39=FACE_OUTER_BOUND('',#61,.T.);
#40=FACE_OUTER_BOUND('',#62,.T.);
#41=FACE_OUTER_BOUND('',#63,.T.);
#42=FACE_OUTER_BOUND('',#64,.T.);
#43=FACE_OUTER_BOUND('',#65,.T.);
#44=FACE_OUTER_BOUND('',#66,.T.);
#45=FACE_OUTER_BOUND('',#67,.T.);
#46=FACE_OUTER_BOUND('',#68,.T.);
#47=FACE_OUTER_BOUND('',#69,.T.);
#48=FACE_OUTER_BOUND('',#70,.T.);
#49=FACE_OUTER_BOUND('',#71,.T.);
#50=FACE_OUTER_BOUND('',#72,.T.);
#51=FACE_OUTER_BOUND('',#73,.T.);
#52=FACE_OUTER_BOUND('',#74,.T.);
#53=FACE_OUTER_BOUND('',#75,.T.);
#54=FACE_OUTER_BOUND('',#76,.T.);
#55=FACE_OUTER_BOUND('',#77,.T.);
#56=FACE_OUTER_BOUND('',#78,.T.);
#57=EDGE_LOOP('',(#264,#265,#266,#267));
#58=EDGE_LOOP('',(#268,#269,#270,#271));
#59=EDGE_LOOP('',(#272,#273,#274,#275,#276,#277));
#60=EDGE_LOOP('',(#278,#279,#280,#281));
#61=EDGE_LOOP('',(#282,#283,#284,#285));
#62=EDGE_LOOP('',(#286,#287,#288,#289));
#63=EDGE_LOOP('',(#290,#291,#292,#293,#294,#295,#296,#297,#298));
#64=EDGE_LOOP('',(#299,#300,#301,#302,#303,#304));
#65=EDGE_LOOP('',(#305,#306,#307,#308));
#66=EDGE_LOOP('',(#309,#310,#311,#312));
#67=EDGE_LOOP('',(#313,#314,#315,#316,#317,#318,#319,#320,#321,#322));
#68=EDGE_LOOP('',(#323,#324,#325,#326,#327,#328));
#69=EDGE_LOOP('',(#329,#330,#331,#332));
#70=EDGE_LOOP('',(#333,#334,#335,#336));
#71=EDGE_LOOP('',(#337,#338,#339,#340));
#72=EDGE_LOOP('',(#341,#342,#343,#344));
#73=EDGE_LOOP('',(#345,#346,#347,#348,#349,#350,#351,#352,#353));
#74=EDGE_LOOP('',(#354,#355,#356,#357));
#75=EDGE_LOOP('',(#358,#359,#360,#361));
#76=EDGE_LOOP('',(#362,#363,#364,#365));
#77=EDGE_LOOP('',(#366,#367,#368,#369,#370,#371));
#78=EDGE_LOOP('',(#372,#373,#374,#375));
#79=LINE('',#565,#121);
#80=LINE('',#568,#122);
#81=LINE('',#571,#123);
#82=LINE('',#573,#124);
#83=LINE('',#574,#125);
#84=LINE('',#577,#126);
#85=LINE('',#579,#127);
#86=LINE('',#581,#128);
#87=LINE('',#586,#129);
#88=LINE('',#589,#130);
#89=LINE('',#590,#131);
#90=LINE('',#593,#132);
#91=LINE('',#594,#133);
#92=LINE('',#597,#134);
#93=LINE('',#599,#135);
#94=LINE('',#601,#136);
#95=LINE('',#605,#137);
#96=LINE('',#609,#138);
#97=LINE('',#610,#139);
#98=LINE('',#612,#140);
#99=LINE('',#615,#141);
#100=LINE('',#616,#142);
#101=LINE('',#619,#143);
#102=LINE('',#620,#144);
#103=LINE('',#648,#145);
#104=LINE('',#669,#146);
#105=LINE('',#673,#147);
#106=LINE('',#693,#148);
#107=LINE('',#695,#149);
#108=LINE('',#697,#150);
#109=LINE('',#698,#151);
#110=LINE('',#700,#152);
#111=LINE('',#702,#153);
#112=LINE('',#704,#154);
#113=LINE('',#706,#155);
#114=LINE('',#709,#156);
#115=LINE('',#713,#157);
#116=LINE('',#716,#158);
#117=LINE('',#718,#159);
#118=LINE('',#719,#160);
#119=LINE('',#721,#161);
#120=LINE('',#724,#162);
#121=VECTOR('',#457,10.);
#122=VECTOR('',#460,10.);
#123=VECTOR('',#463,10.);
#124=VECTOR('',#464,10.);
#125=VECTOR('',#465,10.);
#126=VECTOR('',#468,10.);
#127=VECTOR('',#469,10.);
#128=VECTOR('',#470,10.);
#129=VECTOR('',#477,10.);
#130=VECTOR('',#480,10.);
#131=VECTOR('',#481,10.);
#132=VECTOR('',#484,10.);
#133=VECTOR('',#485,10.);
#134=VECTOR('',#488,10.);
#135=VECTOR('',#489,10.);
#136=VECTOR('',#490,10.);
#137=VECTOR('',#493,10.);
#138=VECTOR('',#496,10.);
#139=VECTOR('',#497,10.);
#140=VECTOR('',#500,10.);
#141=VECTOR('',#503,10.);
#142=VECTOR('',#504,10.);
#143=VECTOR('',#507,10.);
#144=VECTOR('',#508,10.);
#145=VECTOR('',#513,10.);
#146=VECTOR('',#514,10.);
#147=VECTOR('',#517,10.);
#148=VECTOR('',#518,10.);
#149=VECTOR('',#521,10.);
#150=VECTOR('',#522,10.);
#151=VECTOR('',#523,10.);
#152=VECTOR('',#526,10.);
#153=VECTOR('',#529,10.);
#154=VECTOR('',#532,10.);
#155=VECTOR('',#535,10.);
#156=VECTOR('',#538,10.);
#157=VECTOR('',#541,10.);
#158=VECTOR('',#544,10.);
#159=VECTOR('',#547,10.);
#160=VECTOR('',#548,10.);
#161=VECTOR('',#551,10.);
#162=VECTOR('',#556,10.);
#163=CIRCLE('',#420,2.);
#164=CIRCLE('',#421,2.);
#165=CIRCLE('',#424,2.);
#166=CIRCLE('',#426,2.);
#167=CIRCLE('',#430,2.84999999999764);
#168=CIRCLE('',#431,2.85000000000005);
#169=CIRCLE('',#436,9.);
#170=CIRCLE('',#444,2.85000000000005);
#171=CIRCLE('',#445,2.84999999999764);
#172=VERTEX_POINT('',#561);
#173=VERTEX_POINT('',#562);
#174=VERTEX_POINT('',#564);
#175=VERTEX_POINT('',#566);
#176=VERTEX_POINT('',#570);
#177=VERTEX_POINT('',#572);
#178=VERTEX_POINT('',#576);
#179=VERTEX_POINT('',#578);
#180=VERTEX_POINT('',#580);
#181=VERTEX_POINT('',#584);
#182=VERTEX_POINT('',#588);
#183=VERTEX_POINT('',#592);
#184=VERTEX_POINT('',#596);
#185=VERTEX_POINT('',#598);
#186=VERTEX_POINT('',#600);
#187=VERTEX_POINT('',#602);
#188=VERTEX_POINT('',#604);
#189=VERTEX_POINT('',#606);
#190=VERTEX_POINT('',#608);
#191=VERTEX_POINT('',#614);
#192=VERTEX_POINT('',#618);
#193=VERTEX_POINT('',#622);
#194=VERTEX_POINT('',#623);
#195=VERTEX_POINT('',#634);
#196=VERTEX_POINT('',#636);
#197=VERTEX_POINT('',#647);
#198=VERTEX_POINT('',#649);
#199=VERTEX_POINT('',#668);
#200=VERTEX_POINT('',#670);
#201=VERTEX_POINT('',#672);
#202=VERTEX_POINT('',#674);
#203=VERTEX_POINT('',#696);
#204=VERTEX_POINT('',#708);
#205=VERTEX_POINT('',#710);
#206=VERTEX_POINT('',#712);
#207=VERTEX_POINT('',#714);
#208=EDGE_CURVE('',#172,#173,#163,.T.);
#209=EDGE_CURVE('',#173,#174,#79,.T.);
#210=EDGE_CURVE('',#174,#175,#164,.T.);
#211=EDGE_CURVE('',#175,#172,#80,.T.);
#212=EDGE_CURVE('',#173,#176,#81,.T.);
#213=EDGE_CURVE('',#177,#176,#82,.T.);
#214=EDGE_CURVE('',#177,#174,#83,.T.);
#215=EDGE_CURVE('',#172,#178,#84,.T.);
#216=EDGE_CURVE('',#179,#178,#85,.T.);
#217=EDGE_CURVE('',#179,#180,#86,.T.);
#218=EDGE_CURVE('',#176,#180,#165,.T.);
#219=EDGE_CURVE('',#181,#177,#166,.T.);
#220=EDGE_CURVE('',#180,#181,#87,.T.);
#221=EDGE_CURVE('',#182,#179,#88,.T.);
#222=EDGE_CURVE('',#181,#182,#89,.T.);
#223=EDGE_CURVE('',#183,#175,#90,.T.);
#224=EDGE_CURVE('',#178,#183,#91,.T.);
#225=EDGE_CURVE('',#183,#184,#92,.T.);
#226=EDGE_CURVE('',#184,#185,#93,.T.);
#227=EDGE_CURVE('',#185,#186,#94,.T.);
#228=EDGE_CURVE('',#186,#187,#167,.T.);
#229=EDGE_CURVE('',#187,#188,#95,.T.);
#230=EDGE_CURVE('',#188,#189,#168,.T.);
#231=EDGE_CURVE('',#189,#190,#96,.T.);
#232=EDGE_CURVE('',#190,#178,#97,.T.);
#233=EDGE_CURVE('',#183,#182,#98,.T.);
#234=EDGE_CURVE('',#191,#190,#99,.T.);
#235=EDGE_CURVE('',#179,#191,#100,.T.);
#236=EDGE_CURVE('',#192,#182,#101,.T.);
#237=EDGE_CURVE('',#192,#184,#102,.T.);
#238=EDGE_CURVE('',#193,#194,#16,.T.);
#239=EDGE_CURVE('',#195,#193,#169,.T.);
#240=EDGE_CURVE('',#196,#195,#17,.T.);
#241=EDGE_CURVE('',#197,#196,#103,.T.);
#242=EDGE_CURVE('',#198,#197,#18,.T.);
#243=EDGE_CURVE('',#199,#198,#104,.T.);
#244=EDGE_CURVE('',#200,#199,#15,.T.);
#245=EDGE_CURVE('',#201,#200,#105,.T.);
#246=EDGE_CURVE('',#202,#201,#19,.T.);
#247=EDGE_CURVE('',#194,#202,#106,.T.);
#248=EDGE_CURVE('',#199,#185,#107,.T.);
#249=EDGE_CURVE('',#203,#192,#108,.T.);
#250=EDGE_CURVE('',#203,#200,#109,.T.);
#251=EDGE_CURVE('',#198,#186,#110,.T.);
#252=EDGE_CURVE('',#197,#187,#111,.T.);
#253=EDGE_CURVE('',#188,#196,#112,.T.);
#254=EDGE_CURVE('',#195,#189,#113,.T.);
#255=EDGE_CURVE('',#191,#204,#114,.T.);
#256=EDGE_CURVE('',#204,#205,#170,.T.);
#257=EDGE_CURVE('',#205,#206,#115,.T.);
#258=EDGE_CURVE('',#206,#207,#171,.T.);
#259=EDGE_CURVE('',#207,#203,#116,.T.);
#260=EDGE_CURVE('',#206,#202,#117,.T.);
#261=EDGE_CURVE('',#194,#205,#118,.T.);
#262=EDGE_CURVE('',#207,#201,#119,.T.);
#263=EDGE_CURVE('',#204,#193,#120,.T.);
#264=ORIENTED_EDGE('',*,*,#208,.T.);
#265=ORIENTED_EDGE('',*,*,#209,.T.);
#266=ORIENTED_EDGE('',*,*,#210,.T.);
#267=ORIENTED_EDGE('',*,*,#211,.T.);
#268=ORIENTED_EDGE('',*,*,#209,.F.);
#269=ORIENTED_EDGE('',*,*,#212,.T.);
#270=ORIENTED_EDGE('',*,*,#213,.F.);
#271=ORIENTED_EDGE('',*,*,#214,.T.);
#272=ORIENTED_EDGE('',*,*,#208,.F.);
#273=ORIENTED_EDGE('',*,*,#215,.T.);
#274=ORIENTED_EDGE('',*,*,#216,.F.);
#275=ORIENTED_EDGE('',*,*,#217,.T.);
#276=ORIENTED_EDGE('',*,*,#218,.F.);
#277=ORIENTED_EDGE('',*,*,#212,.F.);
#278=ORIENTED_EDGE('',*,*,#219,.T.);
#279=ORIENTED_EDGE('',*,*,#213,.T.);
#280=ORIENTED_EDGE('',*,*,#218,.T.);
#281=ORIENTED_EDGE('',*,*,#220,.T.);
#282=ORIENTED_EDGE('',*,*,#220,.F.);
#283=ORIENTED_EDGE('',*,*,#217,.F.);
#284=ORIENTED_EDGE('',*,*,#221,.F.);
#285=ORIENTED_EDGE('',*,*,#222,.F.);
#286=ORIENTED_EDGE('',*,*,#211,.F.);
#287=ORIENTED_EDGE('',*,*,#223,.F.);
#288=ORIENTED_EDGE('',*,*,#224,.F.);
#289=ORIENTED_EDGE('',*,*,#215,.F.);
#290=ORIENTED_EDGE('',*,*,#224,.T.);
#291=ORIENTED_EDGE('',*,*,#225,.T.);
#292=ORIENTED_EDGE('',*,*,#226,.T.);
#293=ORIENTED_EDGE('',*,*,#227,.T.);
#294=ORIENTED_EDGE('',*,*,#228,.T.);
#295=ORIENTED_EDGE('',*,*,#229,.T.);
#296=ORIENTED_EDGE('',*,*,#230,.T.);
#297=ORIENTED_EDGE('',*,*,#231,.T.);
#298=ORIENTED_EDGE('',*,*,#232,.T.);
#299=ORIENTED_EDGE('',*,*,#210,.F.);
#300=ORIENTED_EDGE('',*,*,#214,.F.);
#301=ORIENTED_EDGE('',*,*,#219,.F.);
#302=ORIENTED_EDGE('',*,*,#222,.T.);
#303=ORIENTED_EDGE('',*,*,#233,.F.);
#304=ORIENTED_EDGE('',*,*,#223,.T.);
#305=ORIENTED_EDGE('',*,*,#216,.T.);
#306=ORIENTED_EDGE('',*,*,#232,.F.);
#307=ORIENTED_EDGE('',*,*,#234,.F.);
#308=ORIENTED_EDGE('',*,*,#235,.F.);
#309=ORIENTED_EDGE('',*,*,#233,.T.);
#310=ORIENTED_EDGE('',*,*,#236,.F.);
#311=ORIENTED_EDGE('',*,*,#237,.T.);
#312=ORIENTED_EDGE('',*,*,#225,.F.);
#313=ORIENTED_EDGE('',*,*,#238,.F.);
#314=ORIENTED_EDGE('',*,*,#239,.F.);
#315=ORIENTED_EDGE('',*,*,#240,.F.);
#316=ORIENTED_EDGE('',*,*,#241,.F.);
#317=ORIENTED_EDGE('',*,*,#242,.F.);
#318=ORIENTED_EDGE('',*,*,#243,.F.);
#319=ORIENTED_EDGE('',*,*,#244,.F.);
#320=ORIENTED_EDGE('',*,*,#245,.F.);
#321=ORIENTED_EDGE('',*,*,#246,.F.);
#322=ORIENTED_EDGE('',*,*,#247,.F.);
#323=ORIENTED_EDGE('',*,*,#244,.T.);
#324=ORIENTED_EDGE('',*,*,#248,.T.);
#325=ORIENTED_EDGE('',*,*,#226,.F.);
#326=ORIENTED_EDGE('',*,*,#237,.F.);
#327=ORIENTED_EDGE('',*,*,#249,.F.);
#328=ORIENTED_EDGE('',*,*,#250,.T.);
#329=ORIENTED_EDGE('',*,*,#243,.T.);
#330=ORIENTED_EDGE('',*,*,#251,.T.);
#331=ORIENTED_EDGE('',*,*,#227,.F.);
#332=ORIENTED_EDGE('',*,*,#248,.F.);
#333=ORIENTED_EDGE('',*,*,#242,.T.);
#334=ORIENTED_EDGE('',*,*,#252,.T.);
#335=ORIENTED_EDGE('',*,*,#228,.F.);
#336=ORIENTED_EDGE('',*,*,#251,.F.);
#337=ORIENTED_EDGE('',*,*,#241,.T.);
#338=ORIENTED_EDGE('',*,*,#253,.F.);
#339=ORIENTED_EDGE('',*,*,#229,.F.);
#340=ORIENTED_EDGE('',*,*,#252,.F.);
#341=ORIENTED_EDGE('',*,*,#240,.T.);
#342=ORIENTED_EDGE('',*,*,#254,.T.);
#343=ORIENTED_EDGE('',*,*,#230,.F.);
#344=ORIENTED_EDGE('',*,*,#253,.T.);
#345=ORIENTED_EDGE('',*,*,#221,.T.);
#346=ORIENTED_EDGE('',*,*,#235,.T.);
#347=ORIENTED_EDGE('',*,*,#255,.T.);
#348=ORIENTED_EDGE('',*,*,#256,.T.);
#349=ORIENTED_EDGE('',*,*,#257,.T.);
#350=ORIENTED_EDGE('',*,*,#258,.T.);
#351=ORIENTED_EDGE('',*,*,#259,.T.);
#352=ORIENTED_EDGE('',*,*,#249,.T.);
#353=ORIENTED_EDGE('',*,*,#236,.T.);
#354=ORIENTED_EDGE('',*,*,#247,.T.);
#355=ORIENTED_EDGE('',*,*,#260,.F.);
#356=ORIENTED_EDGE('',*,*,#257,.F.);
#357=ORIENTED_EDGE('',*,*,#261,.F.);
#358=ORIENTED_EDGE('',*,*,#246,.T.);
#359=ORIENTED_EDGE('',*,*,#262,.F.);
#360=ORIENTED_EDGE('',*,*,#258,.F.);
#361=ORIENTED_EDGE('',*,*,#260,.T.);
#362=ORIENTED_EDGE('',*,*,#245,.T.);
#363=ORIENTED_EDGE('',*,*,#250,.F.);
#364=ORIENTED_EDGE('',*,*,#259,.F.);
#365=ORIENTED_EDGE('',*,*,#262,.T.);
#366=ORIENTED_EDGE('',*,*,#239,.T.);
#367=ORIENTED_EDGE('',*,*,#263,.F.);
#368=ORIENTED_EDGE('',*,*,#255,.F.);
#369=ORIENTED_EDGE('',*,*,#234,.T.);
#370=ORIENTED_EDGE('',*,*,#231,.F.);
#371=ORIENTED_EDGE('',*,*,#254,.F.);
#372=ORIENTED_EDGE('',*,*,#238,.T.);
#373=ORIENTED_EDGE('',*,*,#261,.T.);
#374=ORIENTED_EDGE('',*,*,#256,.F.);
#375=ORIENTED_EDGE('',*,*,#263,.T.);
#376=CYLINDRICAL_SURFACE('',#419,2.);
#377=CYLINDRICAL_SURFACE('',#425,2.);
#378=CYLINDRICAL_SURFACE('',#435,9.);
#379=CYLINDRICAL_SURFACE('',#440,2.84999999999764);
#380=CYLINDRICAL_SURFACE('',#442,2.85000000000005);
#381=CYLINDRICAL_SURFACE('',#447,2.84999999999764);
#382=CYLINDRICAL_SURFACE('',#450,2.85000000000005);
#383=ADVANCED_FACE('',(#35),#376,.T.);
#384=ADVANCED_FACE('',(#36),#20,.T.);
#385=ADVANCED_FACE('',(#37),#21,.T.);
#386=ADVANCED_FACE('',(#38),#377,.T.);
#387=ADVANCED_FACE('',(#39),#22,.F.);
#388=ADVANCED_FACE('',(#40),#23,.F.);
#389=ADVANCED_FACE('',(#41),#24,.T.);
#390=ADVANCED_FACE('',(#42),#25,.T.);
#391=ADVANCED_FACE('',(#43),#26,.T.);
#392=ADVANCED_FACE('',(#44),#27,.T.);
#393=ADVANCED_FACE('',(#45),#378,.F.);
#394=ADVANCED_FACE('',(#46),#28,.T.);
#395=ADVANCED_FACE('',(#47),#29,.T.);
#396=ADVANCED_FACE('',(#48),#379,.T.);
#397=ADVANCED_FACE('',(#49),#30,.T.);
#398=ADVANCED_FACE('',(#50),#380,.T.);
#399=ADVANCED_FACE('',(#51),#31,.F.);
#400=ADVANCED_FACE('',(#52),#32,.T.);
#401=ADVANCED_FACE('',(#53),#381,.T.);
#402=ADVANCED_FACE('',(#54),#33,.T.);
#403=ADVANCED_FACE('',(#55),#34,.T.);
#404=ADVANCED_FACE('',(#56),#382,.T.);
#405=CLOSED_SHELL('',(#383,#384,#385,#386,#387,#388,#389,#390,#391,#392,
#393,#394,#395,#396,#397,#398,#399,#400,#401,#402,#403,#404));
#406=DERIVED_UNIT_ELEMENT(#408,1.);
#407=DERIVED_UNIT_ELEMENT(#731,-3.);
#408=(
MASS_UNIT()
NAMED_UNIT(*)
SI_UNIT(.KILO.,.GRAM.)
);
#409=DERIVED_UNIT((#406,#407));
#410=MEASURE_REPRESENTATION_ITEM('density measure',
POSITIVE_RATIO_MEASURE(7850.),#409);
#411=PROPERTY_DEFINITION_REPRESENTATION(#416,#413);
#412=PROPERTY_DEFINITION_REPRESENTATION(#417,#414);
#413=REPRESENTATION('material name',(#415),#728);
#414=REPRESENTATION('density',(#410),#728);
#415=DESCRIPTIVE_REPRESENTATION_ITEM('Acero','Acero');
#416=PROPERTY_DEFINITION('material property','material name',#738);
#417=PROPERTY_DEFINITION('material property','density of part',#738);
#418=AXIS2_PLACEMENT_3D('',#559,#451,#452);
#419=AXIS2_PLACEMENT_3D('',#560,#453,#454);
#420=AXIS2_PLACEMENT_3D('',#563,#455,#456);
#421=AXIS2_PLACEMENT_3D('',#567,#458,#459);
#422=AXIS2_PLACEMENT_3D('',#569,#461,#462);
#423=AXIS2_PLACEMENT_3D('',#575,#466,#467);
#424=AXIS2_PLACEMENT_3D('',#582,#471,#472);
#425=AXIS2_PLACEMENT_3D('',#583,#473,#474);
#426=AXIS2_PLACEMENT_3D('',#585,#475,#476);
#427=AXIS2_PLACEMENT_3D('',#587,#478,#479);
#428=AXIS2_PLACEMENT_3D('',#591,#482,#483);
#429=AXIS2_PLACEMENT_3D('',#595,#486,#487);
#430=AXIS2_PLACEMENT_3D('',#603,#491,#492);
#431=AXIS2_PLACEMENT_3D('',#607,#494,#495);
#432=AXIS2_PLACEMENT_3D('',#611,#498,#499);
#433=AXIS2_PLACEMENT_3D('',#613,#501,#502);
#434=AXIS2_PLACEMENT_3D('',#617,#505,#506);
#435=AXIS2_PLACEMENT_3D('',#621,#509,#510);
#436=AXIS2_PLACEMENT_3D('',#635,#511,#512);
#437=AXIS2_PLACEMENT_3D('',#671,#515,#516);
#438=AXIS2_PLACEMENT_3D('',#694,#519,#520);
#439=AXIS2_PLACEMENT_3D('',#699,#524,#525);
#440=AXIS2_PLACEMENT_3D('',#701,#527,#528);
#441=AXIS2_PLACEMENT_3D('',#703,#530,#531);
#442=AXIS2_PLACEMENT_3D('',#705,#533,#534);
#443=AXIS2_PLACEMENT_3D('',#707,#536,#537);
#444=AXIS2_PLACEMENT_3D('',#711,#539,#540);
#445=AXIS2_PLACEMENT_3D('',#715,#542,#543);
#446=AXIS2_PLACEMENT_3D('',#717,#545,#546);
#447=AXIS2_PLACEMENT_3D('',#720,#549,#550);
#448=AXIS2_PLACEMENT_3D('',#722,#552,#553);
#449=AXIS2_PLACEMENT_3D('',#723,#554,#555);
#450=AXIS2_PLACEMENT_3D('',#725,#557,#558);
#451=DIRECTION('axis',(0.,0.,1.));
#452=DIRECTION('refdir',(1.,0.,0.));
#453=DIRECTION('center_axis',(0.,1.,0.));
#454=DIRECTION('ref_axis',(0.573576436351046,0.,0.819152044288992));
#455=DIRECTION('center_axis',(0.,-1.,0.));
#456=DIRECTION('ref_axis',(0.573576436351046,0.,0.819152044288992));
#457=DIRECTION('',(0.,-1.,0.));
#458=DIRECTION('center_axis',(0.,1.,0.));
#459=DIRECTION('ref_axis',(0.573576436351046,0.,0.819152044288992));
#460=DIRECTION('',(0.,1.,0.));
#461=DIRECTION('center_axis',(0.,0.,1.));
#462=DIRECTION('ref_axis',(1.,0.,0.));
#463=DIRECTION('',(-1.,0.,0.));
#464=DIRECTION('',(0.,1.,0.));
#465=DIRECTION('',(1.,0.,0.));
#466=DIRECTION('center_axis',(0.,1.,0.));
#467=DIRECTION('ref_axis',(-1.,0.,0.));
#468=DIRECTION('',(0.342020143325669,0.,-0.939692620785908));
#469=DIRECTION('',(1.,0.,0.));
#470=DIRECTION('',(0.342020143325669,0.,0.939692620785908));
#471=DIRECTION('center_axis',(0.,-1.,0.));
#472=DIRECTION('ref_axis',(-0.573576436351046,0.,0.819152044288992));
#473=DIRECTION('center_axis',(0.,-1.,0.));
#474=DIRECTION('ref_axis',(-0.573576436351046,0.,0.819152044288992));
#475=DIRECTION('center_axis',(0.,1.,0.));
#476=DIRECTION('ref_axis',(-0.573576436351046,0.,0.819152044288992));
#477=DIRECTION('',(0.,-1.,0.));
#478=DIRECTION('center_axis',(0.939692620785908,0.,-0.342020143325669));
#479=DIRECTION('ref_axis',(-0.342020143325669,0.,-0.939692620785908));
#480=DIRECTION('',(0.,1.,0.));
#481=DIRECTION('',(-0.342020143325669,0.,-0.939692620785908));
#482=DIRECTION('center_axis',(-0.939692620785908,0.,-0.342020143325669));
#483=DIRECTION('ref_axis',(-0.342020143325669,0.,0.939692620785908));
#484=DIRECTION('',(-0.342020143325669,0.,0.939692620785908));
#485=DIRECTION('',(0.,-1.,0.));
#486=DIRECTION('center_axis',(1.,0.,0.));
#487=DIRECTION('ref_axis',(0.,1.,0.));
#488=DIRECTION('',(0.,-1.,0.));
#489=DIRECTION('',(0.,-0.139173100960066,-0.99026806874157));
#490=DIRECTION('',(0.,-1.,-8.32381916451128E-13));
#491=DIRECTION('center_axis',(1.,0.,0.));
#492=DIRECTION('ref_axis',(0.,0.,1.));
#493=DIRECTION('',(0.,1.,-3.89490063370438E-14));
#494=DIRECTION('center_axis',(1.,0.,0.));
#495=DIRECTION('ref_axis',(0.,-3.89551938464961E-14,-1.));
#496=DIRECTION('',(0.,0.,1.));
#497=DIRECTION('',(0.,-1.,0.));
#498=DIRECTION('center_axis',(0.,-1.,0.));
#499=DIRECTION('ref_axis',(1.,0.,0.));
#500=DIRECTION('',(-1.,0.,0.));
#501=DIRECTION('center_axis',(0.,0.,1.));
#502=DIRECTION('ref_axis',(0.,-1.,0.));
#503=DIRECTION('',(1.,0.,0.));
#504=DIRECTION('',(0.,1.,0.));
#505=DIRECTION('center_axis',(0.,0.,1.));
#506=DIRECTION('ref_axis',(0.,-1.,0.));
#507=DIRECTION('',(0.,1.,0.));
#508=DIRECTION('',(1.,0.,0.));
#509=DIRECTION('center_axis',(0.,1.,0.));
#510=DIRECTION('ref_axis',(-1.2335811384724E-16,0.,1.));
#511=DIRECTION('center_axis',(0.,-1.,0.));
#512=DIRECTION('ref_axis',(-0.928143640437163,0.,-0.372222222222222));
#513=DIRECTION('',(0.,1.,0.));
#514=DIRECTION('',(0.,-1.,0.));
#515=DIRECTION('center_axis',(0.,0.99026806874157,-0.139173100960066));
#516=DIRECTION('ref_axis',(4.88630404652435E-16,-0.139173100960066,-0.99026806874157));
#517=DIRECTION('',(0.,1.,0.));
#518=DIRECTION('',(0.,-1.,0.));
#519=DIRECTION('center_axis',(0.,-0.99026806874157,0.139173100960066));
#520=DIRECTION('ref_axis',(0.,-0.139173100960066,-0.99026806874157));
#521=DIRECTION('',(1.,0.,0.));
#522=DIRECTION('',(0.,0.139173100960066,0.99026806874157));
#523=DIRECTION('',(1.,0.,0.));
#524=DIRECTION('center_axis',(0.,-8.32381916451128E-13,1.));
#525=DIRECTION('ref_axis',(0.,-1.,-8.32381916451128E-13));
#526=DIRECTION('',(1.,0.,0.));
#527=DIRECTION('center_axis',(1.,0.,0.));
#528=DIRECTION('ref_axis',(0.,0.,1.));
#529=DIRECTION('',(1.,0.,0.));
#530=DIRECTION('center_axis',(0.,-3.89490063370438E-14,-1.));
#531=DIRECTION('ref_axis',(0.,1.,-3.89490063370438E-14));
#532=DIRECTION('',(-1.,0.,0.));
#533=DIRECTION('center_axis',(1.,0.,0.));
#534=DIRECTION('ref_axis',(0.,-3.89551938464961E-14,-1.));
#535=DIRECTION('',(1.,0.,0.));
#536=DIRECTION('center_axis',(1.,0.,0.));
#537=DIRECTION('ref_axis',(0.,1.,0.));
#538=DIRECTION('',(0.,0.,-1.));
#539=DIRECTION('center_axis',(-1.,0.,0.));
#540=DIRECTION('ref_axis',(0.,-3.89551938464961E-14,-1.));
#541=DIRECTION('',(0.,-1.,3.89490063370438E-14));
#542=DIRECTION('center_axis',(-1.,0.,0.));
#543=DIRECTION('ref_axis',(0.,0.,1.));
#544=DIRECTION('',(0.,1.,8.32381916451128E-13));
#545=DIRECTION('center_axis',(0.,-3.89490063370438E-14,-1.));
#546=DIRECTION('ref_axis',(0.,1.,-3.89490063370438E-14));
#547=DIRECTION('',(1.,0.,0.));
#548=DIRECTION('',(-1.,0.,0.));
#549=DIRECTION('center_axis',(1.,0.,0.));
#550=DIRECTION('ref_axis',(0.,0.,1.));
#551=DIRECTION('',(1.,0.,0.));
#552=DIRECTION('center_axis',(0.,-8.32381916451128E-13,1.));
#553=DIRECTION('ref_axis',(0.,-1.,-8.32381916451128E-13));
#554=DIRECTION('center_axis',(0.,1.,0.));
#555=DIRECTION('ref_axis',(0.,0.,1.));
#556=DIRECTION('',(1.,0.,0.));
#557=DIRECTION('center_axis',(1.,0.,0.));
#558=DIRECTION('ref_axis',(0.,-3.89551938464961E-14,-1.));
#559=CARTESIAN_POINT('',(0.,0.,0.));
#560=CARTESIAN_POINT('Origin',(8.14370398651577,31.200693775199,13.));
#561=CARTESIAN_POINT('',(10.0230892280876,33.075693775199,13.6840402866513));
#562=CARTESIAN_POINT('',(8.14370398651577,33.075693775199,15.));
#563=CARTESIAN_POINT('Origin',(8.14370398651577,33.075693775199,13.));
#564=CARTESIAN_POINT('',(8.14370398651577,30.575693775199,15.));
#565=CARTESIAN_POINT('',(8.14370398651577,31.200693775199,15.));
#566=CARTESIAN_POINT('',(10.0230892280876,30.575693775199,13.6840402866513));
#567=CARTESIAN_POINT('Origin',(8.14370398651577,30.575693775199,13.));
#568=CARTESIAN_POINT('',(10.0230892280876,31.200693775199,13.6840402866513));
#569=CARTESIAN_POINT('Origin',(0.,31.825693775199,15.));
#570=CARTESIAN_POINT('',(-8.14370398651577,33.075693775199,15.));
#571=CARTESIAN_POINT('',(-11.,33.075693775199,15.));
#572=CARTESIAN_POINT('',(-8.14370398651577,30.575693775199,15.));
#573=CARTESIAN_POINT('',(-8.14370398651577,31.200693775199,15.));
#574=CARTESIAN_POINT('',(-11.,30.575693775199,15.));
#575=CARTESIAN_POINT('Origin',(11.,33.075693775199,11.));
#576=CARTESIAN_POINT('',(11.,33.075693775199,11.));
#577=CARTESIAN_POINT('',(11.,33.075693775199,11.));
#578=CARTESIAN_POINT('',(-11.,33.075693775199,11.));
#579=CARTESIAN_POINT('',(5.5,33.075693775199,11.));
#580=CARTESIAN_POINT('',(-10.0230892280876,33.075693775199,13.6840402866513));
#581=CARTESIAN_POINT('',(-8.98530396862197,33.075693775199,16.535331853276));
#582=CARTESIAN_POINT('Origin',(-8.14370398651577,33.075693775199,13.));
#583=CARTESIAN_POINT('Origin',(-8.14370398651577,31.200693775199,13.));
#584=CARTESIAN_POINT('',(-10.0230892280876,30.575693775199,13.6840402866513));
#585=CARTESIAN_POINT('Origin',(-8.14370398651577,30.575693775199,13.));
#586=CARTESIAN_POINT('',(-10.0230892280876,31.200693775199,13.6840402866513));
#587=CARTESIAN_POINT('Origin',(-9.54411906293519,30.575693775199,15.));
#588=CARTESIAN_POINT('',(-11.,30.575693775199,11.));
#589=CARTESIAN_POINT('',(-11.,15.9690551666224,11.));
#590=CARTESIAN_POINT('',(-10.2720595314676,30.575693775199,13.));
#591=CARTESIAN_POINT('Origin',(11.,30.575693775199,11.));
#592=CARTESIAN_POINT('',(11.,30.575693775199,11.));
#593=CARTESIAN_POINT('',(9.71324443715438,30.575693775199,14.535331853276));
#594=CARTESIAN_POINT('',(11.,15.9690551666224,11.));
#595=CARTESIAN_POINT('Origin',(11.,1.36241655804576,3.825));
#596=CARTESIAN_POINT('',(11.,-25.4008606591099,11.));
#597=CARTESIAN_POINT('',(11.,35.075693775199,11.));
#598=CARTESIAN_POINT('',(11.,-26.6165388792855,2.35000000000008));
#599=CARTESIAN_POINT('',(11.,-26.6165388792855,2.35000000000009));
#600=CARTESIAN_POINT('',(11.,-29.5008606591099,2.34999999999768));
#601=CARTESIAN_POINT('',(11.,-29.5008606591099,2.34999999999768));
#602=CARTESIAN_POINT('',(11.,-29.50086065911,-3.3499999999976));
#603=CARTESIAN_POINT('Origin',(11.,-29.5008606591099,-0.499999999999955));
#604=CARTESIAN_POINT('',(11.,32.2256937751989,-3.35));
#605=CARTESIAN_POINT('',(11.,32.2256937751989,-3.35));
#606=CARTESIAN_POINT('',(11.,35.075693775199,-0.499999999999952));
#607=CARTESIAN_POINT('Origin',(11.,32.225693775199,-0.499999999999953));
#608=CARTESIAN_POINT('',(11.,35.075693775199,11.));
#609=CARTESIAN_POINT('',(11.,35.075693775199,-0.499999999999952));
#610=CARTESIAN_POINT('',(11.,35.075693775199,11.));
#611=CARTESIAN_POINT('Origin',(-11.,30.575693775199,11.));
#612=CARTESIAN_POINT('',(-5.5,30.575693775199,11.));
#613=CARTESIAN_POINT('Origin',(0.,35.075693775199,11.));
#614=CARTESIAN_POINT('',(-11.,35.075693775199,11.));
#615=CARTESIAN_POINT('',(0.,35.075693775199,11.));
#616=CARTESIAN_POINT('',(-11.,35.075693775199,11.));
#617=CARTESIAN_POINT('Origin',(0.,35.075693775199,11.));
#618=CARTESIAN_POINT('',(-11.,-25.4008606591099,11.));
#619=CARTESIAN_POINT('',(-11.,35.075693775199,11.));
#620=CARTESIAN_POINT('',(0.,-25.4008606591099,11.));
#621=CARTESIAN_POINT('Origin',(0.,0.,0.));
#622=CARTESIAN_POINT('',(-8.98610037780572,35.075693775199,-0.499999999999952));
#623=CARTESIAN_POINT('',(-8.35329276393447,32.225693775199,-3.35));
#624=CARTESIAN_POINT('Ctrl Pts',(-8.98610037780572,35.075693775199,-0.499999999999952));
#625=CARTESIAN_POINT('Ctrl Pts',(-8.96589591598928,35.075693775199,-0.86311864392416));
#626=CARTESIAN_POINT('Ctrl Pts',(-8.92029642911025,35.0021929369923,-1.24725975985745));
#627=CARTESIAN_POINT('Ctrl Pts',(-8.79353836829871,34.7088246320608,-1.94962259176319));
#628=CARTESIAN_POINT('Ctrl Pts',(-8.71345056172171,34.4891361807931,-2.26811188070516));
#629=CARTESIAN_POINT('Ctrl Pts',(-8.56739840921773,33.9861700695342,-2.76897681688928));
#630=CARTESIAN_POINT('Ctrl Pts',(-8.49139547274421,33.6687515247995,-2.98667403492085));
#631=CARTESIAN_POINT('Ctrl Pts',(-8.38352894462216,32.9691746490639,-3.27726449512469));
#632=CARTESIAN_POINT('Ctrl Pts',(-8.35329276393447,32.5867008603682,-3.35));
#633=CARTESIAN_POINT('Ctrl Pts',(-8.35329276393447,32.225693775199,-3.35));
#634=CARTESIAN_POINT('',(8.98610037780572,35.075693775199,-0.499999999999952));
#635=CARTESIAN_POINT('Origin',(0.,35.075693775199,0.));
#636=CARTESIAN_POINT('',(8.35329276393447,32.225693775199,-3.35));
#637=CARTESIAN_POINT('Ctrl Pts',(8.35329276393447,32.225693775199,-3.35));
#638=CARTESIAN_POINT('Ctrl Pts',(8.35329276393447,32.5867008603682,-3.35));
#639=CARTESIAN_POINT('Ctrl Pts',(8.38352894462216,32.9691746490639,-3.27726449512469));
#640=CARTESIAN_POINT('Ctrl Pts',(8.49139547274421,33.6687515247995,-2.98667403492085));
#641=CARTESIAN_POINT('Ctrl Pts',(8.56739840921773,33.9861700695342,-2.76897681688928));
#642=CARTESIAN_POINT('Ctrl Pts',(8.71345056172171,34.4891361807931,-2.26811188070516));
#643=CARTESIAN_POINT('Ctrl Pts',(8.79353836829871,34.7088246320608,-1.94962259176319));
#644=CARTESIAN_POINT('Ctrl Pts',(8.92029642911025,35.0021929369923,-1.24725975985745));
#645=CARTESIAN_POINT('Ctrl Pts',(8.96589591598928,35.075693775199,-0.863118643924159));
#646=CARTESIAN_POINT('Ctrl Pts',(8.98610037780572,35.075693775199,-0.499999999999952));
#647=CARTESIAN_POINT('',(8.35329276393447,-29.5008606591099,-3.35));
#648=CARTESIAN_POINT('',(8.35329276393497,0.,-3.34999999999875));
#649=CARTESIAN_POINT('',(8.68777877250629,-29.5008606591099,2.34999999999768));
#650=CARTESIAN_POINT('Ctrl Pts',(8.68777877250629,-29.5008606591099,2.34999999999768));
#651=CARTESIAN_POINT('Ctrl Pts',(8.68777877250629,-29.8611001213036,2.34999999999768));
#652=CARTESIAN_POINT('Ctrl Pts',(8.70834621743558,-30.2440753283813,2.27757026276695));
#653=CARTESIAN_POINT('Ctrl Pts',(8.77958332011738,-30.9466819770621,1.98533021573236));
#654=CARTESIAN_POINT('Ctrl Pts',(8.82885292653127,-31.2664897465224,1.76560426504352));
#655=CARTESIAN_POINT('Ctrl Pts',(8.91499281176191,-31.7703655486416,1.2602740956968));
#656=CARTESIAN_POINT('Ctrl Pts',(8.95757935406474,-31.9889167175304,0.940840891321581));
#657=CARTESIAN_POINT('Ctrl Pts',(9.0036617301513,-32.2792055815118,0.239760105912468));
#658=CARTESIAN_POINT('Ctrl Pts',(9.00602025479914,-32.3508606591075,-0.141995971646959));
#659=CARTESIAN_POINT('Ctrl Pts',(8.96589591598929,-32.3508606591075,-0.86311864392385));
#660=CARTESIAN_POINT('Ctrl Pts',(8.92029642911032,-32.2773598209008,-1.24725975985681));
#661=CARTESIAN_POINT('Ctrl Pts',(8.79353836829897,-31.9839915159696,-1.94962259176196));
#662=CARTESIAN_POINT('Ctrl Pts',(8.71345056172209,-31.7643030647021,-2.26811188070367));
#663=CARTESIAN_POINT('Ctrl Pts',(8.56739840921833,-31.2613369534436,-2.76897681688737));
#664=CARTESIAN_POINT('Ctrl Pts',(8.49139547274494,-30.9439184087092,-2.98667403491875));
#665=CARTESIAN_POINT('Ctrl Pts',(8.38352894462307,-30.2443415329742,-3.27726449512235));
#666=CARTESIAN_POINT('Ctrl Pts',(8.35329276393543,-29.8618677442788,-3.3499999999976));
#667=CARTESIAN_POINT('Ctrl Pts',(8.35329276393543,-29.5008606591099,-3.3499999999976));
#668=CARTESIAN_POINT('',(8.68777877250564,-26.6165388792855,2.35000000000009));
#669=CARTESIAN_POINT('',(8.68777877249965,0.,2.35000000002224));
#670=CARTESIAN_POINT('',(-8.68777877250564,-26.6165388792855,2.35000000000009));
#671=CARTESIAN_POINT('Origin',(0.,-26.9468098408362,0.));
#672=CARTESIAN_POINT('',(-8.68777877250629,-29.5008606591099,2.34999999999768));
#673=CARTESIAN_POINT('',(-8.68777877249965,0.,2.35000000002224));
#674=CARTESIAN_POINT('',(-8.35329276393447,-29.5008606591099,-3.35));
#675=CARTESIAN_POINT('Ctrl Pts',(-8.35329276393543,-29.5008606591099,-3.34999999999759));
#676=CARTESIAN_POINT('Ctrl Pts',(-8.35329276393543,-29.8618677442788,-3.34999999999759));
#677=CARTESIAN_POINT('Ctrl Pts',(-8.38352894462307,-30.2443415329742,-3.27726449512235));
#678=CARTESIAN_POINT('Ctrl Pts',(-8.49139547274494,-30.9439184087092,-2.98667403491875));
#679=CARTESIAN_POINT('Ctrl Pts',(-8.56739840921833,-31.2613369534436,-2.76897681688737));
#680=CARTESIAN_POINT('Ctrl Pts',(-8.71345056172209,-31.7643030647021,-2.26811188070367));
#681=CARTESIAN_POINT('Ctrl Pts',(-8.79353836829897,-31.9839915159696,-1.94962259176196));
#682=CARTESIAN_POINT('Ctrl Pts',(-8.92029642911032,-32.2773598209008,-1.24725975985681));
#683=CARTESIAN_POINT('Ctrl Pts',(-8.96589591598929,-32.3508606591075,-0.863118643923849));
#684=CARTESIAN_POINT('Ctrl Pts',(-9.00602025479914,-32.3508606591075,-0.141995971646959));
#685=CARTESIAN_POINT('Ctrl Pts',(-9.0036617301513,-32.2792055815118,0.239760105912468));
#686=CARTESIAN_POINT('Ctrl Pts',(-8.95757935406474,-31.9889167175304,0.940840891321581));
#687=CARTESIAN_POINT('Ctrl Pts',(-8.91499281176191,-31.7703655486416,1.2602740956968));
#688=CARTESIAN_POINT('Ctrl Pts',(-8.82885292653127,-31.2664897465224,1.76560426504352));
#689=CARTESIAN_POINT('Ctrl Pts',(-8.77958332011738,-30.9466819770621,1.98533021573237));
#690=CARTESIAN_POINT('Ctrl Pts',(-8.70834621743558,-30.2440753283813,2.27757026276695));
#691=CARTESIAN_POINT('Ctrl Pts',(-8.68777877250629,-29.8611001213036,2.34999999999768));
#692=CARTESIAN_POINT('Ctrl Pts',(-8.68777877250629,-29.5008606591099,2.34999999999768));
#693=CARTESIAN_POINT('',(-8.35329276393497,0.,-3.34999999999875));
#694=CARTESIAN_POINT('Origin',(0.,-25.4008606591099,11.));
#695=CARTESIAN_POINT('',(0.,-26.6165388792855,2.35000000000009));
#696=CARTESIAN_POINT('',(-11.,-26.6165388792855,2.35000000000008));
#697=CARTESIAN_POINT('',(-11.,-26.6165388792855,2.35000000000009));
#698=CARTESIAN_POINT('',(0.,-26.6165388792855,2.35000000000009));
#699=CARTESIAN_POINT('Origin',(0.,-26.6165388792855,2.35000000000009));
#700=CARTESIAN_POINT('',(0.,-29.5008606591099,2.34999999999768));
#701=CARTESIAN_POINT('Origin',(0.,-29.5008606591099,-0.499999999999955));
#702=CARTESIAN_POINT('',(0.,-29.50086065911,-3.3499999999976));
#703=CARTESIAN_POINT('Origin',(0.,-29.50086065911,-3.3499999999976));
#704=CARTESIAN_POINT('',(0.,32.2256937751989,-3.35));
#705=CARTESIAN_POINT('Origin',(0.,32.225693775199,-0.499999999999953));
#706=CARTESIAN_POINT('',(0.,35.075693775199,-0.499999999999952));
#707=CARTESIAN_POINT('Origin',(-11.,1.36241655804576,3.825));
#708=CARTESIAN_POINT('',(-11.,35.075693775199,-0.499999999999952));
#709=CARTESIAN_POINT('',(-11.,35.075693775199,-0.499999999999952));
#710=CARTESIAN_POINT('',(-11.,32.2256937751989,-3.35));
#711=CARTESIAN_POINT('Origin',(-11.,32.225693775199,-0.499999999999953));
#712=CARTESIAN_POINT('',(-11.,-29.50086065911,-3.3499999999976));
#713=CARTESIAN_POINT('',(-11.,32.2256937751989,-3.35));
#714=CARTESIAN_POINT('',(-11.,-29.5008606591099,2.34999999999768));
#715=CARTESIAN_POINT('Origin',(-11.,-29.5008606591099,-0.499999999999955));
#716=CARTESIAN_POINT('',(-11.,-29.5008606591099,2.34999999999768));
#717=CARTESIAN_POINT('Origin',(0.,-29.50086065911,-3.3499999999976));
#718=CARTESIAN_POINT('',(0.,-29.50086065911,-3.3499999999976));
#719=CARTESIAN_POINT('',(0.,32.2256937751989,-3.35));
#720=CARTESIAN_POINT('Origin',(0.,-29.5008606591099,-0.499999999999955));
#721=CARTESIAN_POINT('',(0.,-29.5008606591099,2.34999999999768));
#722=CARTESIAN_POINT('Origin',(0.,-26.6165388792855,2.35000000000009));
#723=CARTESIAN_POINT('Origin',(0.,35.075693775199,-0.499999999999952));
#724=CARTESIAN_POINT('',(0.,35.075693775199,-0.499999999999952));
#725=CARTESIAN_POINT('Origin',(0.,32.225693775199,-0.499999999999953));
#726=UNCERTAINTY_MEASURE_WITH_UNIT(LENGTH_MEASURE(0.01),#730,
'DISTANCE_ACCURACY_VALUE',
'Maximum model space distance between geometric entities at asserted c
onnectivities');
#727=UNCERTAINTY_MEASURE_WITH_UNIT(LENGTH_MEASURE(0.01),#730,
'DISTANCE_ACCURACY_VALUE',
'Maximum model space distance between geometric entities at asserted c
onnectivities');
#728=(
GEOMETRIC_REPRESENTATION_CONTEXT(3)
GLOBAL_UNCERTAINTY_ASSIGNED_CONTEXT((#726))
GLOBAL_UNIT_ASSIGNED_CONTEXT((#730,#732,#733))
REPRESENTATION_CONTEXT('','3D')
);
#729=(
GEOMETRIC_REPRESENTATION_CONTEXT(3)
GLOBAL_UNCERTAINTY_ASSIGNED_CONTEXT((#727))
GLOBAL_UNIT_ASSIGNED_CONTEXT((#730,#732,#733))
REPRESENTATION_CONTEXT('','3D')
);
#730=(
LENGTH_UNIT()
NAMED_UNIT(*)
SI_UNIT(.MILLI.,.METRE.)
);
#731=(
LENGTH_UNIT()
NAMED_UNIT(*)
SI_UNIT($,.METRE.)
);
#732=(
NAMED_UNIT(*)
PLANE_ANGLE_UNIT()
SI_UNIT($,.RADIAN.)
);
#733=(
NAMED_UNIT(*)
SI_UNIT($,.STERADIAN.)
SOLID_ANGLE_UNIT()
);
#734=SHAPE_DEFINITION_REPRESENTATION(#735,#736);
#735=PRODUCT_DEFINITION_SHAPE('',$,#738);
#736=SHAPE_REPRESENTATION('',(#418),#728);
#737=PRODUCT_DEFINITION_CONTEXT('part definition',#742,'design');
#738=PRODUCT_DEFINITION('Superior','Superior',#739,#737);
#739=PRODUCT_DEFINITION_FORMATION('',$,#744);
#740=PRODUCT_RELATED_PRODUCT_CATEGORY('Superior','Superior',(#744));
#741=APPLICATION_PROTOCOL_DEFINITION('international standard',
'automotive_design',2009,#742);
#742=APPLICATION_CONTEXT(
'Core Data for Automotive Mechanical Design Process');
#743=PRODUCT_CONTEXT('part definition',#742,'mechanical');
#744=PRODUCT('Superior','Superior',$,(#743));
#745=PRESENTATION_STYLE_ASSIGNMENT((#746));
#746=SURFACE_STYLE_USAGE(.BOTH.,#747);
#747=SURFACE_SIDE_STYLE('',(#748));
#748=SURFACE_STYLE_FILL_AREA(#749);
#749=FILL_AREA_STYLE('Acero - Satinado',(#750));
#750=FILL_AREA_STYLE_COLOUR('Acero - Satinado',#751);
#751=COLOUR_RGB('Acero - Satinado',0.627450980392157,0.627450980392157,
0.627450980392157);
ENDSEC;
END-ISO-10303-21;
