ISO-10303-21;
HEADER;
/* Generated by software containing ST-Developer
 * from STEP Tools, Inc. (www.steptools.com) 
 */

FILE_DESCRIPTION(
/* description */ (''),
/* implementation_level */ '2;1');

FILE_NAME(
/* name */ 'Tapa caja contador gas zigbee.step',
/* time_stamp */ '2026-06-20T11:06:53+02:00',
/* author */ (''),
/* organization */ (''),
/* preprocessor_version */ 'ST-DEVELOPER v20.1',
/* originating_system */ 'Autodesk Translation Framework v15.8.0.0',
/* authorisation */ '');

FILE_SCHEMA (('AUTOMOTIVE_DESIGN { 1 0 10303 214 3 1 1 }'));
ENDSEC;

DATA;
#10=MECHANICAL_DESIGN_GEOMETRIC_PRESENTATION_REPRESENTATION('',(#13),#462);
#11=SHAPE_REPRESENTATION_RELATIONSHIP('SRR','None',#469,#12);
#12=ADVANCED_BREP_SHAPE_REPRESENTATION('',(#14),#461);
#13=STYLED_ITEM('',(#478),#14);
#14=MANIFOLD_SOLID_BREP('Tapa caja contador gas zigbee',#270);
#15=FACE_BOUND('',#66,.T.);
#16=FACE_BOUND('',#67,.T.);
#17=FACE_BOUND('',#68,.T.);
#18=FACE_BOUND('',#69,.T.);
#19=PLANE('',#287);
#20=PLANE('',#291);
#21=PLANE('',#295);
#22=PLANE('',#299);
#23=PLANE('',#300);
#24=PLANE('',#301);
#25=PLANE('',#302);
#26=PLANE('',#303);
#27=PLANE('',#304);
#28=PLANE('',#305);
#29=PLANE('',#306);
#30=PLANE('',#307);
#31=PLANE('',#308);
#32=FACE_OUTER_BOUND('',#49,.T.);
#33=FACE_OUTER_BOUND('',#50,.T.);
#34=FACE_OUTER_BOUND('',#51,.T.);
#35=FACE_OUTER_BOUND('',#52,.T.);
#36=FACE_OUTER_BOUND('',#53,.T.);
#37=FACE_OUTER_BOUND('',#54,.T.);
#38=FACE_OUTER_BOUND('',#55,.T.);
#39=FACE_OUTER_BOUND('',#56,.T.);
#40=FACE_OUTER_BOUND('',#57,.T.);
#41=FACE_OUTER_BOUND('',#58,.T.);
#42=FACE_OUTER_BOUND('',#59,.T.);
#43=FACE_OUTER_BOUND('',#60,.T.);
#44=FACE_OUTER_BOUND('',#61,.T.);
#45=FACE_OUTER_BOUND('',#62,.T.);
#46=FACE_OUTER_BOUND('',#63,.T.);
#47=FACE_OUTER_BOUND('',#64,.T.);
#48=FACE_OUTER_BOUND('',#65,.T.);
#49=EDGE_LOOP('',(#183,#184,#185,#186));
#50=EDGE_LOOP('',(#187));
#51=EDGE_LOOP('',(#188,#189,#190,#191));
#52=EDGE_LOOP('',(#192));
#53=EDGE_LOOP('',(#193,#194,#195,#196));
#54=EDGE_LOOP('',(#197));
#55=EDGE_LOOP('',(#198,#199,#200,#201));
#56=EDGE_LOOP('',(#202));
#57=EDGE_LOOP('',(#203,#204,#205,#206));
#58=EDGE_LOOP('',(#207,#208,#209,#210));
#59=EDGE_LOOP('',(#211,#212,#213,#214));
#60=EDGE_LOOP('',(#215,#216,#217,#218));
#61=EDGE_LOOP('',(#219,#220,#221,#222));
#62=EDGE_LOOP('',(#223,#224,#225,#226));
#63=EDGE_LOOP('',(#227,#228,#229,#230));
#64=EDGE_LOOP('',(#231,#232,#233,#234,#235,#236,#237));
#65=EDGE_LOOP('',(#238,#239,#240,#241,#242,#243,#244));
#66=EDGE_LOOP('',(#245));
#67=EDGE_LOOP('',(#246));
#68=EDGE_LOOP('',(#247));
#69=EDGE_LOOP('',(#248));
#70=LINE('',#391,#95);
#71=LINE('',#398,#96);
#72=LINE('',#405,#97);
#73=LINE('',#412,#98);
#74=LINE('',#418,#99);
#75=LINE('',#420,#100);
#76=LINE('',#422,#101);
#77=LINE('',#423,#102);
#78=LINE('',#426,#103);
#79=LINE('',#428,#104);
#80=LINE('',#429,#105);
#81=LINE('',#432,#106);
#82=LINE('',#434,#107);
#83=LINE('',#435,#108);
#84=LINE('',#438,#109);
#85=LINE('',#440,#110);
#86=LINE('',#441,#111);
#87=LINE('',#444,#112);
#88=LINE('',#446,#113);
#89=LINE('',#447,#114);
#90=LINE('',#450,#115);
#91=LINE('',#452,#116);
#92=LINE('',#453,#117);
#93=LINE('',#455,#118);
#94=LINE('',#456,#119);
#95=VECTOR('',#315,2.375);
#96=VECTOR('',#324,2.375);
#97=VECTOR('',#333,2.375);
#98=VECTOR('',#342,2.375);
#99=VECTOR('',#349,10.);
#100=VECTOR('',#350,10.);
#101=VECTOR('',#351,10.);
#102=VECTOR('',#352,10.);
#103=VECTOR('',#355,10.);
#104=VECTOR('',#356,10.);
#105=VECTOR('',#357,10.);
#106=VECTOR('',#360,10.);
#107=VECTOR('',#361,10.);
#108=VECTOR('',#362,10.);
#109=VECTOR('',#365,10.);
#110=VECTOR('',#366,10.);
#111=VECTOR('',#367,10.);
#112=VECTOR('',#370,10.);
#113=VECTOR('',#371,10.);
#114=VECTOR('',#372,10.);
#115=VECTOR('',#375,10.);
#116=VECTOR('',#376,10.);
#117=VECTOR('',#377,10.);
#118=VECTOR('',#380,10.);
#119=VECTOR('',#381,10.);
#120=CIRCLE('',#285,2.375);
#121=CIRCLE('',#286,2.375);
#122=CIRCLE('',#289,2.375);
#123=CIRCLE('',#290,2.375);
#124=CIRCLE('',#293,2.375);
#125=CIRCLE('',#294,2.375);
#126=CIRCLE('',#297,2.375);
#127=CIRCLE('',#298,2.375);
#128=VERTEX_POINT('',#388);
#129=VERTEX_POINT('',#390);
#130=VERTEX_POINT('',#395);
#131=VERTEX_POINT('',#397);
#132=VERTEX_POINT('',#402);
#133=VERTEX_POINT('',#404);
#134=VERTEX_POINT('',#409);
#135=VERTEX_POINT('',#411);
#136=VERTEX_POINT('',#416);
#137=VERTEX_POINT('',#417);
#138=VERTEX_POINT('',#419);
#139=VERTEX_POINT('',#421);
#140=VERTEX_POINT('',#425);
#141=VERTEX_POINT('',#427);
#142=VERTEX_POINT('',#431);
#143=VERTEX_POINT('',#433);
#144=VERTEX_POINT('',#437);
#145=VERTEX_POINT('',#439);
#146=VERTEX_POINT('',#443);
#147=VERTEX_POINT('',#445);
#148=VERTEX_POINT('',#449);
#149=VERTEX_POINT('',#451);
#150=EDGE_CURVE('',#128,#128,#120,.T.);
#151=EDGE_CURVE('',#128,#129,#70,.T.);
#152=EDGE_CURVE('',#129,#129,#121,.T.);
#153=EDGE_CURVE('',#130,#130,#122,.T.);
#154=EDGE_CURVE('',#130,#131,#71,.T.);
#155=EDGE_CURVE('',#131,#131,#123,.T.);
#156=EDGE_CURVE('',#132,#132,#124,.T.);
#157=EDGE_CURVE('',#132,#133,#72,.T.);
#158=EDGE_CURVE('',#133,#133,#125,.T.);
#159=EDGE_CURVE('',#134,#134,#126,.T.);
#160=EDGE_CURVE('',#134,#135,#73,.T.);
#161=EDGE_CURVE('',#135,#135,#127,.T.);
#162=EDGE_CURVE('',#136,#137,#74,.T.);
#163=EDGE_CURVE('',#138,#136,#75,.T.);
#164=EDGE_CURVE('',#138,#139,#76,.T.);
#165=EDGE_CURVE('',#139,#137,#77,.T.);
#166=EDGE_CURVE('',#140,#136,#78,.T.);
#167=EDGE_CURVE('',#141,#140,#79,.T.);
#168=EDGE_CURVE('',#141,#138,#80,.T.);
#169=EDGE_CURVE('',#142,#140,#81,.T.);
#170=EDGE_CURVE('',#143,#142,#82,.T.);
#171=EDGE_CURVE('',#141,#143,#83,.T.);
#172=EDGE_CURVE('',#144,#142,#84,.T.);
#173=EDGE_CURVE('',#145,#144,#85,.T.);
#174=EDGE_CURVE('',#143,#145,#86,.T.);
#175=EDGE_CURVE('',#146,#144,#87,.T.);
#176=EDGE_CURVE('',#147,#146,#88,.T.);
#177=EDGE_CURVE('',#145,#147,#89,.T.);
#178=EDGE_CURVE('',#148,#146,#90,.T.);
#179=EDGE_CURVE('',#149,#148,#91,.T.);
#180=EDGE_CURVE('',#149,#147,#92,.T.);
#181=EDGE_CURVE('',#137,#148,#93,.T.);
#182=EDGE_CURVE('',#139,#149,#94,.T.);
#183=ORIENTED_EDGE('',*,*,#150,.F.);
#184=ORIENTED_EDGE('',*,*,#151,.T.);
#185=ORIENTED_EDGE('',*,*,#152,.T.);
#186=ORIENTED_EDGE('',*,*,#151,.F.);
#187=ORIENTED_EDGE('',*,*,#152,.F.);
#188=ORIENTED_EDGE('',*,*,#153,.F.);
#189=ORIENTED_EDGE('',*,*,#154,.T.);
#190=ORIENTED_EDGE('',*,*,#155,.T.);
#191=ORIENTED_EDGE('',*,*,#154,.F.);
#192=ORIENTED_EDGE('',*,*,#155,.F.);
#193=ORIENTED_EDGE('',*,*,#156,.F.);
#194=ORIENTED_EDGE('',*,*,#157,.T.);
#195=ORIENTED_EDGE('',*,*,#158,.T.);
#196=ORIENTED_EDGE('',*,*,#157,.F.);
#197=ORIENTED_EDGE('',*,*,#158,.F.);
#198=ORIENTED_EDGE('',*,*,#159,.F.);
#199=ORIENTED_EDGE('',*,*,#160,.T.);
#200=ORIENTED_EDGE('',*,*,#161,.T.);
#201=ORIENTED_EDGE('',*,*,#160,.F.);
#202=ORIENTED_EDGE('',*,*,#161,.F.);
#203=ORIENTED_EDGE('',*,*,#162,.F.);
#204=ORIENTED_EDGE('',*,*,#163,.F.);
#205=ORIENTED_EDGE('',*,*,#164,.T.);
#206=ORIENTED_EDGE('',*,*,#165,.T.);
#207=ORIENTED_EDGE('',*,*,#166,.F.);
#208=ORIENTED_EDGE('',*,*,#167,.F.);
#209=ORIENTED_EDGE('',*,*,#168,.T.);
#210=ORIENTED_EDGE('',*,*,#163,.T.);
#211=ORIENTED_EDGE('',*,*,#169,.F.);
#212=ORIENTED_EDGE('',*,*,#170,.F.);
#213=ORIENTED_EDGE('',*,*,#171,.F.);
#214=ORIENTED_EDGE('',*,*,#167,.T.);
#215=ORIENTED_EDGE('',*,*,#172,.F.);
#216=ORIENTED_EDGE('',*,*,#173,.F.);
#217=ORIENTED_EDGE('',*,*,#174,.F.);
#218=ORIENTED_EDGE('',*,*,#170,.T.);
#219=ORIENTED_EDGE('',*,*,#175,.F.);
#220=ORIENTED_EDGE('',*,*,#176,.F.);
#221=ORIENTED_EDGE('',*,*,#177,.F.);
#222=ORIENTED_EDGE('',*,*,#173,.T.);
#223=ORIENTED_EDGE('',*,*,#178,.F.);
#224=ORIENTED_EDGE('',*,*,#179,.F.);
#225=ORIENTED_EDGE('',*,*,#180,.T.);
#226=ORIENTED_EDGE('',*,*,#176,.T.);
#227=ORIENTED_EDGE('',*,*,#181,.F.);
#228=ORIENTED_EDGE('',*,*,#165,.F.);
#229=ORIENTED_EDGE('',*,*,#182,.T.);
#230=ORIENTED_EDGE('',*,*,#179,.T.);
#231=ORIENTED_EDGE('',*,*,#171,.T.);
#232=ORIENTED_EDGE('',*,*,#174,.T.);
#233=ORIENTED_EDGE('',*,*,#177,.T.);
#234=ORIENTED_EDGE('',*,*,#180,.F.);
#235=ORIENTED_EDGE('',*,*,#182,.F.);
#236=ORIENTED_EDGE('',*,*,#164,.F.);
#237=ORIENTED_EDGE('',*,*,#168,.F.);
#238=ORIENTED_EDGE('',*,*,#172,.T.);
#239=ORIENTED_EDGE('',*,*,#169,.T.);
#240=ORIENTED_EDGE('',*,*,#166,.T.);
#241=ORIENTED_EDGE('',*,*,#162,.T.);
#242=ORIENTED_EDGE('',*,*,#181,.T.);
#243=ORIENTED_EDGE('',*,*,#178,.T.);
#244=ORIENTED_EDGE('',*,*,#175,.T.);
#245=ORIENTED_EDGE('',*,*,#150,.T.);
#246=ORIENTED_EDGE('',*,*,#153,.T.);
#247=ORIENTED_EDGE('',*,*,#156,.T.);
#248=ORIENTED_EDGE('',*,*,#159,.T.);
#249=CYLINDRICAL_SURFACE('',#284,2.375);
#250=CYLINDRICAL_SURFACE('',#288,2.375);
#251=CYLINDRICAL_SURFACE('',#292,2.375);
#252=CYLINDRICAL_SURFACE('',#296,2.375);
#253=ADVANCED_FACE('',(#32),#249,.F.);
#254=ADVANCED_FACE('',(#33),#19,.F.);
#255=ADVANCED_FACE('',(#34),#250,.F.);
#256=ADVANCED_FACE('',(#35),#20,.F.);
#257=ADVANCED_FACE('',(#36),#251,.F.);
#258=ADVANCED_FACE('',(#37),#21,.F.);
#259=ADVANCED_FACE('',(#38),#252,.F.);
#260=ADVANCED_FACE('',(#39),#22,.F.);
#261=ADVANCED_FACE('',(#40),#23,.T.);
#262=ADVANCED_FACE('',(#41),#24,.T.);
#263=ADVANCED_FACE('',(#42),#25,.T.);
#264=ADVANCED_FACE('',(#43),#26,.T.);
#265=ADVANCED_FACE('',(#44),#27,.T.);
#266=ADVANCED_FACE('',(#45),#28,.T.);
#267=ADVANCED_FACE('',(#46),#29,.T.);
#268=ADVANCED_FACE('',(#47),#30,.T.);
#269=ADVANCED_FACE('',(#48,#15,#16,#17,#18),#31,.F.);
#270=CLOSED_SHELL('',(#253,#254,#255,#256,#257,#258,#259,#260,#261,#262,
#263,#264,#265,#266,#267,#268,#269));
#271=DERIVED_UNIT_ELEMENT(#273,1.);
#272=DERIVED_UNIT_ELEMENT(#464,-3.);
#273=(
MASS_UNIT()
NAMED_UNIT(*)
SI_UNIT(.KILO.,.GRAM.)
);
#274=DERIVED_UNIT((#271,#272));
#275=MEASURE_REPRESENTATION_ITEM('density measure',
POSITIVE_RATIO_MEASURE(7850.),#274);
#276=PROPERTY_DEFINITION_REPRESENTATION(#281,#278);
#277=PROPERTY_DEFINITION_REPRESENTATION(#282,#279);
#278=REPRESENTATION('material name',(#280),#461);
#279=REPRESENTATION('density',(#275),#461);
#280=DESCRIPTIVE_REPRESENTATION_ITEM('Acero','Acero');
#281=PROPERTY_DEFINITION('material property','material name',#471);
#282=PROPERTY_DEFINITION('material property','density of part',#471);
#283=AXIS2_PLACEMENT_3D('',#386,#309,#310);
#284=AXIS2_PLACEMENT_3D('',#387,#311,#312);
#285=AXIS2_PLACEMENT_3D('',#389,#313,#314);
#286=AXIS2_PLACEMENT_3D('',#392,#316,#317);
#287=AXIS2_PLACEMENT_3D('',#393,#318,#319);
#288=AXIS2_PLACEMENT_3D('',#394,#320,#321);
#289=AXIS2_PLACEMENT_3D('',#396,#322,#323);
#290=AXIS2_PLACEMENT_3D('',#399,#325,#326);
#291=AXIS2_PLACEMENT_3D('',#400,#327,#328);
#292=AXIS2_PLACEMENT_3D('',#401,#329,#330);
#293=AXIS2_PLACEMENT_3D('',#403,#331,#332);
#294=AXIS2_PLACEMENT_3D('',#406,#334,#335);
#295=AXIS2_PLACEMENT_3D('',#407,#336,#337);
#296=AXIS2_PLACEMENT_3D('',#408,#338,#339);
#297=AXIS2_PLACEMENT_3D('',#410,#340,#341);
#298=AXIS2_PLACEMENT_3D('',#413,#343,#344);
#299=AXIS2_PLACEMENT_3D('',#414,#345,#346);
#300=AXIS2_PLACEMENT_3D('',#415,#347,#348);
#301=AXIS2_PLACEMENT_3D('',#424,#353,#354);
#302=AXIS2_PLACEMENT_3D('',#430,#358,#359);
#303=AXIS2_PLACEMENT_3D('',#436,#363,#364);
#304=AXIS2_PLACEMENT_3D('',#442,#368,#369);
#305=AXIS2_PLACEMENT_3D('',#448,#373,#374);
#306=AXIS2_PLACEMENT_3D('',#454,#378,#379);
#307=AXIS2_PLACEMENT_3D('',#457,#382,#383);
#308=AXIS2_PLACEMENT_3D('',#458,#384,#385);
#309=DIRECTION('axis',(0.,0.,1.));
#310=DIRECTION('refdir',(1.,0.,0.));
#311=DIRECTION('center_axis',(0.,-1.,0.));
#312=DIRECTION('ref_axis',(-1.,0.,0.));
#313=DIRECTION('center_axis',(0.,-1.,-1.11022302462516E-15));
#314=DIRECTION('ref_axis',(-1.,0.,0.));
#315=DIRECTION('',(0.,-1.,0.));
#316=DIRECTION('center_axis',(0.,-1.,-1.11022302462516E-15));
#317=DIRECTION('ref_axis',(-1.,0.,0.));
#318=DIRECTION('center_axis',(0.,-1.,-1.11022302462516E-15));
#319=DIRECTION('ref_axis',(-1.,0.,0.));
#320=DIRECTION('center_axis',(0.,-1.,-1.11022302462516E-15));
#321=DIRECTION('ref_axis',(-1.,0.,0.));
#322=DIRECTION('center_axis',(0.,-1.,-1.11022302462516E-15));
#323=DIRECTION('ref_axis',(-1.,0.,0.));
#324=DIRECTION('',(0.,-1.,-1.11022302462516E-15));
#325=DIRECTION('center_axis',(0.,-1.,-1.11022302462516E-15));
#326=DIRECTION('ref_axis',(-1.,0.,0.));
#327=DIRECTION('center_axis',(0.,-1.,-1.11022302462516E-15));
#328=DIRECTION('ref_axis',(-1.,0.,0.));
#329=DIRECTION('center_axis',(0.,-1.,0.));
#330=DIRECTION('ref_axis',(-1.,0.,0.));
#331=DIRECTION('center_axis',(0.,-1.,-1.11022302462516E-15));
#332=DIRECTION('ref_axis',(-1.,0.,0.));
#333=DIRECTION('',(0.,-1.,0.));
#334=DIRECTION('center_axis',(0.,-1.,-1.11022302462516E-15));
#335=DIRECTION('ref_axis',(-1.,0.,0.));
#336=DIRECTION('center_axis',(0.,-1.,-1.11022302462516E-15));
#337=DIRECTION('ref_axis',(-1.,0.,0.));
#338=DIRECTION('center_axis',(0.,-1.,-1.11022302462516E-15));
#339=DIRECTION('ref_axis',(-1.,0.,0.));
#340=DIRECTION('center_axis',(0.,-1.,-1.11022302462516E-15));
#341=DIRECTION('ref_axis',(-1.,0.,0.));
#342=DIRECTION('',(0.,-1.,-1.11022302462516E-15));
#343=DIRECTION('center_axis',(0.,-1.,-1.11022302462516E-15));
#344=DIRECTION('ref_axis',(-1.,0.,0.));
#345=DIRECTION('center_axis',(0.,-1.,-1.11022302462516E-15));
#346=DIRECTION('ref_axis',(-1.,0.,0.));
#347=DIRECTION('center_axis',(-1.,3.70426796215733E-31,-3.67015875909142E-16));
#348=DIRECTION('ref_axis',(-3.67015875909142E-16,-2.35119545504293E-17,
1.));
#349=DIRECTION('',(-3.67015875909142E-16,-1.11022302462516E-15,1.));
#350=DIRECTION('',(0.,1.,1.00929365875016E-15));
#351=DIRECTION('',(-3.67015875909142E-16,-2.35119545504293E-17,1.));
#352=DIRECTION('',(0.,1.,1.00929365875016E-15));
#353=DIRECTION('center_axis',(2.59125119790287E-31,1.00929365875016E-15,
-1.));
#354=DIRECTION('ref_axis',(-1.,2.56739074444567E-16,-1.1225611782387E-47));
#355=DIRECTION('',(-1.,2.87686674249929E-46,-2.59125119790287E-31));
#356=DIRECTION('',(0.,1.,1.00929365875016E-15));
#357=DIRECTION('',(-1.,2.56739074444567E-16,-1.1225611782387E-47));
#358=DIRECTION('center_axis',(1.,2.7055317309117E-31,-2.680618972938E-16));
#359=DIRECTION('ref_axis',(-2.680618972938E-16,6.93889390390722E-17,-1.));
#360=DIRECTION('',(-2.680618972938E-16,1.11022302462516E-15,-1.));
#361=DIRECTION('',(0.,1.,1.00929365875016E-15));
#362=DIRECTION('',(2.680618972938E-16,-6.93889390390722E-17,1.));
#363=DIRECTION('center_axis',(-2.59125119790287E-31,-1.00929365875016E-15,
1.));
#364=DIRECTION('ref_axis',(1.,-2.56739074444567E-16,0.));
#365=DIRECTION('',(1.,-2.87686674249929E-46,2.59125119790287E-31));
#366=DIRECTION('',(0.,1.,1.00929365875016E-15));
#367=DIRECTION('',(-1.,2.56739074444567E-16,0.));
#368=DIRECTION('center_axis',(-1.,3.05667091390549E-46,-3.02852483754892E-31));
#369=DIRECTION('ref_axis',(-3.02852483754892E-31,-1.17961196366423E-15,
1.));
#370=DIRECTION('',(-3.02852483754892E-31,-1.11022302462516E-15,1.));
#371=DIRECTION('',(0.,1.,1.00929365875016E-15));
#372=DIRECTION('',(3.02852483754892E-31,1.17961196366423E-15,-1.));
#373=DIRECTION('center_axis',(-0.77667435441883,-6.35756428782012E-16,0.629902331467422));
#374=DIRECTION('ref_axis',(0.629902331467422,-2.156131510034E-16,0.77667435441883));
#375=DIRECTION('',(0.629902331467422,-8.62281750911664E-16,0.77667435441883));
#376=DIRECTION('',(0.,1.,1.00929365875016E-15));
#377=DIRECTION('',(0.629902331467422,-2.156131510034E-16,0.77667435441883));
#378=DIRECTION('center_axis',(-0.945274445290694,-3.29308599258275E-16,
0.326276298680076));
#379=DIRECTION('ref_axis',(0.326276298680076,-1.49359465795791E-16,0.945274445290694));
#380=DIRECTION('',(0.326276298680076,-1.0494654537515E-15,0.945274445290694));
#381=DIRECTION('',(0.326276298680076,-1.49359465795791E-16,0.945274445290694));
#382=DIRECTION('center_axis',(-2.56739074444567E-16,-1.,-1.17961196366423E-15));
#383=DIRECTION('ref_axis',(-1.,2.56739074444567E-16,0.));
#384=DIRECTION('center_axis',(0.,-1.,-1.11022302462516E-15));
#385=DIRECTION('ref_axis',(0.,1.11022302462516E-15,-1.));
#386=CARTESIAN_POINT('',(0.,0.,0.));
#387=CARTESIAN_POINT('Origin',(-29.5450336999574,-8.94518352345323,36.3824481076729));
#388=CARTESIAN_POINT('',(-27.1700336999574,-8.94518352345323,36.3824481076729));
#389=CARTESIAN_POINT('Origin',(-29.5450336999574,-8.94518352345322,36.3824481076729));
#390=CARTESIAN_POINT('',(-27.1700336999574,-10.4451835234532,36.3824481076729));
#391=CARTESIAN_POINT('',(-27.1700336999574,-8.94518352345323,36.3824481076729));
#392=CARTESIAN_POINT('Origin',(-29.5450336999574,-10.4451835234532,36.3824481076729));
#393=CARTESIAN_POINT('Origin',(-29.5450336999574,-10.4451835234532,36.3824481076729));
#394=CARTESIAN_POINT('Origin',(-43.9422812799441,-8.94518352345319,-1.425));
#395=CARTESIAN_POINT('',(-41.5672812799441,-8.94518352345319,-1.425));
#396=CARTESIAN_POINT('Origin',(-43.9422812799441,-8.94518352345319,-1.425));
#397=CARTESIAN_POINT('',(-41.5672812799441,-10.4451835234532,-1.425));
#398=CARTESIAN_POINT('',(-41.5672812799441,-8.94518352345319,-1.425));
#399=CARTESIAN_POINT('Origin',(-43.9422812799441,-10.4451835234532,-1.425));
#400=CARTESIAN_POINT('Origin',(-43.9422812799441,-10.4451835234532,-1.425));
#401=CARTESIAN_POINT('Origin',(24.625,-8.94518352345324,41.625));
#402=CARTESIAN_POINT('',(27.,-8.94518352345324,41.625));
#403=CARTESIAN_POINT('Origin',(24.625,-8.94518352345322,41.625));
#404=CARTESIAN_POINT('',(27.,-10.4451835234532,41.625));
#405=CARTESIAN_POINT('',(27.,-8.94518352345324,41.625));
#406=CARTESIAN_POINT('Origin',(24.625,-10.4451835234532,41.625));
#407=CARTESIAN_POINT('Origin',(24.625,-10.4451835234532,41.625));
#408=CARTESIAN_POINT('Origin',(24.625,-8.94518352345319,-1.425));
#409=CARTESIAN_POINT('',(27.,-8.94518352345319,-1.425));
#410=CARTESIAN_POINT('Origin',(24.625,-8.94518352345319,-1.425));
#411=CARTESIAN_POINT('',(27.,-10.4451835234532,-1.425));
#412=CARTESIAN_POINT('',(27.,-8.94518352345319,-1.425));
#413=CARTESIAN_POINT('Origin',(24.625,-10.4451835234532,-1.425));
#414=CARTESIAN_POINT('Origin',(24.625,-10.4451835234532,-1.425));
#415=CARTESIAN_POINT('Origin',(-49.8045340842893,-10.9451835234532,-5.69999999999999));
#416=CARTESIAN_POINT('',(-49.8045340842893,-8.94518352345319,-5.69999999999999));
#417=CARTESIAN_POINT('',(-49.8045340842893,-8.94518352345319,-4.99999999999999));
#418=CARTESIAN_POINT('',(-49.8045340842893,-8.9451835234532,7.225));
#419=CARTESIAN_POINT('',(-49.8045340842893,-10.9451835234532,-5.69999999999999));
#420=CARTESIAN_POINT('',(-49.8045340842893,-10.9451835234532,-5.69999999999999));
#421=CARTESIAN_POINT('',(-49.8045340842893,-10.9451835234532,-4.99999999999999));
#422=CARTESIAN_POINT('',(-49.8045340842893,-10.9451835234532,-53.4000000000001));
#423=CARTESIAN_POINT('',(-49.8045340842893,-10.9451835234532,-4.99999999999999));
#424=CARTESIAN_POINT('Origin',(29.0000002785162,-10.9451835234532,-5.7));
#425=CARTESIAN_POINT('',(29.0000002785162,-8.94518352345319,-5.7));
#426=CARTESIAN_POINT('',(9.29886668781485,-8.94518352345319,-5.7));
#427=CARTESIAN_POINT('',(29.0000002785162,-10.9451835234532,-5.7));
#428=CARTESIAN_POINT('',(29.0000002785162,-10.9451835234532,-5.7));
#429=CARTESIAN_POINT('',(-47.8045340842893,-10.9451835234532,-5.7));
#430=CARTESIAN_POINT('Origin',(29.,-10.9451835234532,46.));
#431=CARTESIAN_POINT('',(29.,-8.94518352345324,46.));
#432=CARTESIAN_POINT('',(29.,-8.94518352345323,33.075));
#433=CARTESIAN_POINT('',(29.,-10.9451835234532,46.));
#434=CARTESIAN_POINT('',(29.,-10.9451835234532,46.));
#435=CARTESIAN_POINT('',(29.,-10.9451835234532,-53.4));
#436=CARTESIAN_POINT('Origin',(-29.,-10.9451835234532,46.));
#437=CARTESIAN_POINT('',(-29.,-8.94518352345324,46.));
#438=CARTESIAN_POINT('',(-19.7011334514433,-8.94518352345324,46.));
#439=CARTESIAN_POINT('',(-29.,-10.9451835234532,46.));
#440=CARTESIAN_POINT('',(-29.,-10.9451835234532,46.));
#441=CARTESIAN_POINT('',(29.,-10.9451835234532,46.));
#442=CARTESIAN_POINT('Origin',(-29.,-10.9451835234532,44.));
#443=CARTESIAN_POINT('',(-29.,-8.94518352345324,44.));
#444=CARTESIAN_POINT('',(-29.,-8.94518352345323,32.075));
#445=CARTESIAN_POINT('',(-29.,-10.9451835234532,44.));
#446=CARTESIAN_POINT('',(-29.,-10.9451835234532,44.));
#447=CARTESIAN_POINT('',(-29.,-10.9451835234532,46.));
#448=CARTESIAN_POINT('Origin',(-35.774653241046,-10.9451835234532,35.6468011474999));
#449=CARTESIAN_POINT('',(-35.774653241046,-8.94518352345323,35.6468011474999));
#450=CARTESIAN_POINT('',(-34.5318064047517,-8.94518352345323,37.1792407274132));
#451=CARTESIAN_POINT('',(-35.774653241046,-10.9451835234532,35.6468011474999));
#452=CARTESIAN_POINT('',(-35.774653241046,-10.9451835234532,35.6468011474999));
#453=CARTESIAN_POINT('',(-35.774653241046,-10.9451835234532,35.6468011474999));
#454=CARTESIAN_POINT('Origin',(-49.8045340842893,-10.9451835234532,-4.99999999999999));
#455=CARTESIAN_POINT('',(-43.8288361726991,-8.94518352345321,12.3125493682945));
#456=CARTESIAN_POINT('',(-49.8045340842893,-10.9451835234532,-4.99999999999999));
#457=CARTESIAN_POINT('Origin',(-10.4022669028865,-10.9451835234532,20.15));
#458=CARTESIAN_POINT('Origin',(-10.4022669028865,-8.94518352345322,20.15));
#459=UNCERTAINTY_MEASURE_WITH_UNIT(LENGTH_MEASURE(0.01),#463,
'DISTANCE_ACCURACY_VALUE',
'Maximum model space distance between geometric entities at asserted c
onnectivities');
#460=UNCERTAINTY_MEASURE_WITH_UNIT(LENGTH_MEASURE(0.01),#463,
'DISTANCE_ACCURACY_VALUE',
'Maximum model space distance between geometric entities at asserted c
onnectivities');
#461=(
GEOMETRIC_REPRESENTATION_CONTEXT(3)
GLOBAL_UNCERTAINTY_ASSIGNED_CONTEXT((#459))
GLOBAL_UNIT_ASSIGNED_CONTEXT((#463,#465,#466))
REPRESENTATION_CONTEXT('','3D')
);
#462=(
GEOMETRIC_REPRESENTATION_CONTEXT(3)
GLOBAL_UNCERTAINTY_ASSIGNED_CONTEXT((#460))
GLOBAL_UNIT_ASSIGNED_CONTEXT((#463,#465,#466))
REPRESENTATION_CONTEXT('','3D')
);
#463=(
LENGTH_UNIT()
NAMED_UNIT(*)
SI_UNIT(.MILLI.,.METRE.)
);
#464=(
LENGTH_UNIT()
NAMED_UNIT(*)
SI_UNIT($,.METRE.)
);
#465=(
NAMED_UNIT(*)
PLANE_ANGLE_UNIT()
SI_UNIT($,.RADIAN.)
);
#466=(
NAMED_UNIT(*)
SI_UNIT($,.STERADIAN.)
SOLID_ANGLE_UNIT()
);
#467=SHAPE_DEFINITION_REPRESENTATION(#468,#469);
#468=PRODUCT_DEFINITION_SHAPE('',$,#471);
#469=SHAPE_REPRESENTATION('',(#283),#461);
#470=PRODUCT_DEFINITION_CONTEXT('part definition',#475,'design');
#471=PRODUCT_DEFINITION('Tapa caja contador gas zigbee',
'Tapa caja contador gas zigbee',#472,#470);
#472=PRODUCT_DEFINITION_FORMATION('',$,#477);
#473=PRODUCT_RELATED_PRODUCT_CATEGORY('Tapa caja contador gas zigbee',
'Tapa caja contador gas zigbee',(#477));
#474=APPLICATION_PROTOCOL_DEFINITION('international standard',
'automotive_design',2009,#475);
#475=APPLICATION_CONTEXT(
'Core Data for Automotive Mechanical Design Process');
#476=PRODUCT_CONTEXT('part definition',#475,'mechanical');
#477=PRODUCT('Tapa caja contador gas zigbee',
'Tapa caja contador gas zigbee',$,(#476));
#478=PRESENTATION_STYLE_ASSIGNMENT((#479));
#479=SURFACE_STYLE_USAGE(.BOTH.,#480);
#480=SURFACE_SIDE_STYLE('',(#481));
#481=SURFACE_STYLE_FILL_AREA(#482);
#482=FILL_AREA_STYLE('Acero - Satinado',(#483));
#483=FILL_AREA_STYLE_COLOUR('Acero - Satinado',#484);
#484=COLOUR_RGB('Acero - Satinado',0.627450980392157,0.627450980392157,
0.627450980392157);
ENDSEC;
END-ISO-10303-21;
